<mxfile host="www.draw.io" modified="2020-03-31T21:10:51.654Z" agent="5.0 (Macintosh; Intel Mac OS X 10_15_1) AppleWebKit/537.36 (KHTML, like Gecko) Chrome/80.0.3987.149 Safari/537.36" etag="4V-YLm9xd3hdtWlkARKa" version="12.9.5" type="github" pages="28">
  <diagram id="NUfDgKDsE6OHEJt_40ZV" name="01 - ser">
    <mxGraphModel dx="791" dy="389" grid="1" gridSize="10" guides="1" tooltips="1" connect="1" arrows="1" fold="1" page="1" pageScale="1" pageWidth="1920" pageHeight="1200" math="0" shadow="0">
      <root>
        <mxCell id="0" />
        <mxCell id="1" parent="0" />
        <mxCell id="jXveK2bMxRPvRKgx9fGy-1" value="auth" style="rounded=0;whiteSpace=wrap;html=1;fontSize=20;align=center;fillColor=#dae8fc;strokeColor=#6c8ebf;fontStyle=1" vertex="1" parent="1">
          <mxGeometry x="330" y="240" width="660" height="30" as="geometry" />
        </mxCell>
        <mxCell id="jXveK2bMxRPvRKgx9fGy-2" value="POST" style="rounded=0;whiteSpace=wrap;html=1;fontSize=17;align=center;" vertex="1" parent="1">
          <mxGeometry x="500" y="297" width="110" height="50" as="geometry" />
        </mxCell>
        <mxCell id="jXveK2bMxRPvRKgx9fGy-3" value="/api/users/signup" style="rounded=0;whiteSpace=wrap;html=1;fontSize=15;align=center;" vertex="1" parent="1">
          <mxGeometry x="330" y="297" width="160" height="50" as="geometry" />
        </mxCell>
        <mxCell id="jXveK2bMxRPvRKgx9fGy-4" value="{ email: string, password: string }" style="rounded=0;whiteSpace=wrap;html=1;fontSize=11;align=center;" vertex="1" parent="1">
          <mxGeometry x="620" y="297" width="170" height="50" as="geometry" />
        </mxCell>
        <mxCell id="jXveK2bMxRPvRKgx9fGy-5" value="Sign up for an account" style="rounded=0;whiteSpace=wrap;html=1;fontSize=17;align=center;" vertex="1" parent="1">
          <mxGeometry x="800" y="297" width="190" height="50" as="geometry" />
        </mxCell>
        <mxCell id="jXveK2bMxRPvRKgx9fGy-6" value="Method" style="rounded=0;whiteSpace=wrap;html=1;fontSize=14;align=center;fillColor=#d5e8d4;strokeColor=#82b366;" vertex="1" parent="1">
          <mxGeometry x="500" y="270" width="110" height="27" as="geometry" />
        </mxCell>
        <mxCell id="jXveK2bMxRPvRKgx9fGy-7" value="Route" style="rounded=0;whiteSpace=wrap;html=1;fontSize=14;align=center;fillColor=#d5e8d4;strokeColor=#82b366;" vertex="1" parent="1">
          <mxGeometry x="330" y="270" width="160" height="27" as="geometry" />
        </mxCell>
        <mxCell id="jXveK2bMxRPvRKgx9fGy-8" value="Body" style="rounded=0;whiteSpace=wrap;html=1;fontSize=14;align=center;fillColor=#d5e8d4;strokeColor=#82b366;" vertex="1" parent="1">
          <mxGeometry x="620" y="270" width="170" height="27" as="geometry" />
        </mxCell>
        <mxCell id="jXveK2bMxRPvRKgx9fGy-9" value="Purpose" style="rounded=0;whiteSpace=wrap;html=1;fontSize=14;align=center;fillColor=#d5e8d4;strokeColor=#82b366;" vertex="1" parent="1">
          <mxGeometry x="800" y="270" width="190" height="27" as="geometry" />
        </mxCell>
        <mxCell id="jXveK2bMxRPvRKgx9fGy-10" value="POST" style="rounded=0;whiteSpace=wrap;html=1;fontSize=17;align=center;" vertex="1" parent="1">
          <mxGeometry x="500" y="347" width="110" height="50" as="geometry" />
        </mxCell>
        <mxCell id="jXveK2bMxRPvRKgx9fGy-11" value="/api/users/signin" style="rounded=0;whiteSpace=wrap;html=1;fontSize=15;align=center;" vertex="1" parent="1">
          <mxGeometry x="330" y="347" width="160" height="50" as="geometry" />
        </mxCell>
        <mxCell id="jXveK2bMxRPvRKgx9fGy-12" value="{ email: string, password: string }" style="rounded=0;whiteSpace=wrap;html=1;fontSize=11;align=center;" vertex="1" parent="1">
          <mxGeometry x="620" y="347" width="170" height="50" as="geometry" />
        </mxCell>
        <mxCell id="jXveK2bMxRPvRKgx9fGy-13" value="Sign in to an existing account" style="rounded=0;whiteSpace=wrap;html=1;fontSize=17;align=center;" vertex="1" parent="1">
          <mxGeometry x="800" y="347" width="190" height="50" as="geometry" />
        </mxCell>
        <mxCell id="jXveK2bMxRPvRKgx9fGy-14" value="POST" style="rounded=0;whiteSpace=wrap;html=1;fontSize=17;align=center;" vertex="1" parent="1">
          <mxGeometry x="500" y="397" width="110" height="50" as="geometry" />
        </mxCell>
        <mxCell id="jXveK2bMxRPvRKgx9fGy-15" value="/api/users/signout" style="rounded=0;whiteSpace=wrap;html=1;fontSize=15;align=center;" vertex="1" parent="1">
          <mxGeometry x="330" y="397" width="160" height="50" as="geometry" />
        </mxCell>
        <mxCell id="jXveK2bMxRPvRKgx9fGy-16" value="{}" style="rounded=0;whiteSpace=wrap;html=1;fontSize=11;align=center;" vertex="1" parent="1">
          <mxGeometry x="620" y="397" width="170" height="50" as="geometry" />
        </mxCell>
        <mxCell id="jXveK2bMxRPvRKgx9fGy-17" value="Sign out" style="rounded=0;whiteSpace=wrap;html=1;fontSize=17;align=center;" vertex="1" parent="1">
          <mxGeometry x="800" y="397" width="190" height="50" as="geometry" />
        </mxCell>
        <mxCell id="jXveK2bMxRPvRKgx9fGy-18" value="GET" style="rounded=0;whiteSpace=wrap;html=1;fontSize=17;align=center;" vertex="1" parent="1">
          <mxGeometry x="500" y="447" width="110" height="50" as="geometry" />
        </mxCell>
        <mxCell id="jXveK2bMxRPvRKgx9fGy-19" value="/api/users/currentuser" style="rounded=0;whiteSpace=wrap;html=1;fontSize=15;align=center;" vertex="1" parent="1">
          <mxGeometry x="330" y="447" width="160" height="50" as="geometry" />
        </mxCell>
        <mxCell id="jXveK2bMxRPvRKgx9fGy-20" value="-" style="rounded=0;whiteSpace=wrap;html=1;fontSize=11;align=center;" vertex="1" parent="1">
          <mxGeometry x="620" y="447" width="170" height="50" as="geometry" />
        </mxCell>
        <mxCell id="jXveK2bMxRPvRKgx9fGy-21" value="Return info about the user" style="rounded=0;whiteSpace=wrap;html=1;fontSize=17;align=center;" vertex="1" parent="1">
          <mxGeometry x="800" y="447" width="190" height="50" as="geometry" />
        </mxCell>
      </root>
    </mxGraphModel>
  </diagram>
  <diagram id="xK65zpt_wXICJ7INhTSN" name="02 - err">
    <mxGraphModel dx="834" dy="411" grid="1" gridSize="10" guides="1" tooltips="1" connect="1" arrows="1" fold="1" page="1" pageScale="1" pageWidth="1920" pageHeight="1200" math="0" shadow="0">
      <root>
        <mxCell id="VJaZoBrLlxG71sy5Xpih-0" />
        <mxCell id="VJaZoBrLlxG71sy5Xpih-1" parent="VJaZoBrLlxG71sy5Xpih-0" />
        <mxCell id="VJaZoBrLlxG71sy5Xpih-2" value="" style="strokeWidth=1;shadow=0;dashed=0;align=center;html=1;shape=mxgraph.mockup.containers.browserWindow;rSize=0;strokeColor=#666666;strokeColor2=#008cff;strokeColor3=#c4c4c4;mainText=,;recursiveResize=0;fontStyle=1" vertex="1" parent="VJaZoBrLlxG71sy5Xpih-1">
          <mxGeometry x="310" y="200" width="310" height="250" as="geometry" />
        </mxCell>
        <mxCell id="VJaZoBrLlxG71sy5Xpih-3" value="Page 1" style="strokeWidth=1;shadow=0;dashed=0;align=center;html=1;shape=mxgraph.mockup.containers.anchor;fontSize=17;fontColor=#666666;align=left;" vertex="1" parent="VJaZoBrLlxG71sy5Xpih-2">
          <mxGeometry x="60" y="12" width="110" height="26" as="geometry" />
        </mxCell>
        <mxCell id="VJaZoBrLlxG71sy5Xpih-4" value="" style="strokeWidth=1;shadow=0;dashed=0;align=center;html=1;shape=mxgraph.mockup.containers.anchor;rSize=0;fontSize=17;fontColor=#666666;align=left;" vertex="1" parent="VJaZoBrLlxG71sy5Xpih-2">
          <mxGeometry x="130" y="60" width="250" height="26" as="geometry" />
        </mxCell>
        <mxCell id="-xvLRh_j-IuLuucw7O7m-15" value="React App" style="rounded=0;whiteSpace=wrap;html=1;fontSize=22;fillColor=#ffe6cc;strokeColor=#d79b00;fontStyle=1" vertex="1" parent="VJaZoBrLlxG71sy5Xpih-2">
          <mxGeometry x="90" y="130" width="160" height="80" as="geometry" />
        </mxCell>
        <mxCell id="-xvLRh_j-IuLuucw7O7m-0" value="Auth Service" style="rounded=0;whiteSpace=wrap;html=1;fillColor=#f5f5f5;strokeColor=#666666;fontColor=#333333;fontStyle=1;fontSize=19;" vertex="1" parent="VJaZoBrLlxG71sy5Xpih-1">
          <mxGeometry x="820" y="320" width="190" height="35" as="geometry" />
        </mxCell>
        <mxCell id="-xvLRh_j-IuLuucw7O7m-4" value="" style="rounded=0;whiteSpace=wrap;html=1;fillColor=#f5f5f5;strokeColor=#666666;fontColor=#333333;fontStyle=1;fontSize=19;" vertex="1" parent="VJaZoBrLlxG71sy5Xpih-1">
          <mxGeometry x="820" y="355" width="190" height="60" as="geometry" />
        </mxCell>
        <mxCell id="-xvLRh_j-IuLuucw7O7m-5" value="Express + express-validator" style="rounded=0;whiteSpace=wrap;html=1;fontSize=15;" vertex="1" parent="VJaZoBrLlxG71sy5Xpih-1">
          <mxGeometry x="850" y="360" width="130" height="50" as="geometry" />
        </mxCell>
        <mxCell id="-xvLRh_j-IuLuucw7O7m-11" value="" style="endArrow=classic;html=1;fontSize=15;" edge="1" parent="VJaZoBrLlxG71sy5Xpih-1">
          <mxGeometry width="50" height="50" relative="1" as="geometry">
            <mxPoint x="620" y="330" as="sourcePoint" />
            <mxPoint x="820" y="330" as="targetPoint" />
          </mxGeometry>
        </mxCell>
        <mxCell id="-xvLRh_j-IuLuucw7O7m-12" value="Invalid Data" style="rounded=0;whiteSpace=wrap;html=1;fontSize=15;fillColor=#f8cecc;strokeColor=#b85450;" vertex="1" parent="VJaZoBrLlxG71sy5Xpih-1">
          <mxGeometry x="650" y="300" width="150" height="30" as="geometry" />
        </mxCell>
        <mxCell id="-xvLRh_j-IuLuucw7O7m-13" value="" style="endArrow=classic;html=1;fontSize=15;" edge="1" parent="VJaZoBrLlxG71sy5Xpih-1">
          <mxGeometry width="50" height="50" relative="1" as="geometry">
            <mxPoint x="820" y="399.9999999999999" as="sourcePoint" />
            <mxPoint x="620" y="399.9999999999999" as="targetPoint" />
          </mxGeometry>
        </mxCell>
        <mxCell id="-xvLRh_j-IuLuucw7O7m-14" value="[ { msg: &#39;Bad Email&#39;, param: &#39;email&#39; } ]&amp;nbsp;" style="rounded=0;whiteSpace=wrap;html=1;fontSize=15;fillColor=#f8cecc;strokeColor=#b85450;" vertex="1" parent="VJaZoBrLlxG71sy5Xpih-1">
          <mxGeometry x="650" y="400" width="150" height="60" as="geometry" />
        </mxCell>
      </root>
    </mxGraphModel>
  </diagram>
  <diagram name="03 - servs" id="11nauQjKG3MhSGTxVOR1">
    <mxGraphModel dx="834" dy="411" grid="1" gridSize="10" guides="1" tooltips="1" connect="1" arrows="1" fold="1" page="1" pageScale="1" pageWidth="1920" pageHeight="1200" math="0" shadow="0">
      <root>
        <mxCell id="38kEomMLc0x0vmcq4sSD-0" />
        <mxCell id="38kEomMLc0x0vmcq4sSD-1" parent="38kEomMLc0x0vmcq4sSD-0" />
        <mxCell id="38kEomMLc0x0vmcq4sSD-2" value="" style="strokeWidth=1;shadow=0;dashed=0;align=center;html=1;shape=mxgraph.mockup.containers.browserWindow;rSize=0;strokeColor=#666666;strokeColor2=#008cff;strokeColor3=#c4c4c4;mainText=,;recursiveResize=0;fontStyle=1" vertex="1" parent="38kEomMLc0x0vmcq4sSD-1">
          <mxGeometry x="310" y="200" width="310" height="250" as="geometry" />
        </mxCell>
        <mxCell id="38kEomMLc0x0vmcq4sSD-3" value="Page 1" style="strokeWidth=1;shadow=0;dashed=0;align=center;html=1;shape=mxgraph.mockup.containers.anchor;fontSize=17;fontColor=#666666;align=left;" vertex="1" parent="38kEomMLc0x0vmcq4sSD-2">
          <mxGeometry x="60" y="12" width="110" height="26" as="geometry" />
        </mxCell>
        <mxCell id="38kEomMLc0x0vmcq4sSD-4" value="" style="strokeWidth=1;shadow=0;dashed=0;align=center;html=1;shape=mxgraph.mockup.containers.anchor;rSize=0;fontSize=17;fontColor=#666666;align=left;" vertex="1" parent="38kEomMLc0x0vmcq4sSD-2">
          <mxGeometry x="130" y="60" width="250" height="26" as="geometry" />
        </mxCell>
        <mxCell id="38kEomMLc0x0vmcq4sSD-5" value="React App" style="rounded=0;whiteSpace=wrap;html=1;fontSize=22;fillColor=#ffe6cc;strokeColor=#d79b00;fontStyle=1" vertex="1" parent="38kEomMLc0x0vmcq4sSD-2">
          <mxGeometry x="90" y="130" width="160" height="80" as="geometry" />
        </mxCell>
        <mxCell id="38kEomMLc0x0vmcq4sSD-6" value="Auth Service" style="rounded=0;whiteSpace=wrap;html=1;fillColor=#f5f5f5;strokeColor=#666666;fontColor=#333333;fontStyle=1;fontSize=19;" vertex="1" parent="38kEomMLc0x0vmcq4sSD-1">
          <mxGeometry x="820" y="320" width="190" height="35" as="geometry" />
        </mxCell>
        <mxCell id="38kEomMLc0x0vmcq4sSD-7" value="" style="rounded=0;whiteSpace=wrap;html=1;fillColor=#f5f5f5;strokeColor=#666666;fontColor=#333333;fontStyle=1;fontSize=19;" vertex="1" parent="38kEomMLc0x0vmcq4sSD-1">
          <mxGeometry x="820" y="355" width="190" height="60" as="geometry" />
        </mxCell>
        <mxCell id="38kEomMLc0x0vmcq4sSD-8" value="Express + express-validator" style="rounded=0;whiteSpace=wrap;html=1;fontSize=15;" vertex="1" parent="38kEomMLc0x0vmcq4sSD-1">
          <mxGeometry x="850" y="360" width="130" height="50" as="geometry" />
        </mxCell>
        <mxCell id="38kEomMLc0x0vmcq4sSD-9" value="" style="endArrow=classic;html=1;fontSize=15;" edge="1" parent="38kEomMLc0x0vmcq4sSD-1">
          <mxGeometry width="50" height="50" relative="1" as="geometry">
            <mxPoint x="620" y="330" as="sourcePoint" />
            <mxPoint x="820" y="330" as="targetPoint" />
          </mxGeometry>
        </mxCell>
        <mxCell id="38kEomMLc0x0vmcq4sSD-10" value="Invalid Data" style="rounded=0;whiteSpace=wrap;html=1;fontSize=15;fillColor=#f8cecc;strokeColor=#b85450;" vertex="1" parent="38kEomMLc0x0vmcq4sSD-1">
          <mxGeometry x="650" y="300" width="150" height="30" as="geometry" />
        </mxCell>
        <mxCell id="38kEomMLc0x0vmcq4sSD-11" value="" style="endArrow=classic;html=1;fontSize=15;" edge="1" parent="38kEomMLc0x0vmcq4sSD-1">
          <mxGeometry width="50" height="50" relative="1" as="geometry">
            <mxPoint x="820" y="399.9999999999999" as="sourcePoint" />
            <mxPoint x="620" y="399.9999999999999" as="targetPoint" />
          </mxGeometry>
        </mxCell>
        <mxCell id="38kEomMLc0x0vmcq4sSD-12" value="[ { msg: &#39;Bad Email&#39;, param: &#39;email&#39; } ]&amp;nbsp;" style="rounded=0;whiteSpace=wrap;html=1;fontSize=15;fillColor=#f8cecc;strokeColor=#b85450;" vertex="1" parent="38kEomMLc0x0vmcq4sSD-1">
          <mxGeometry x="650" y="400" width="150" height="60" as="geometry" />
        </mxCell>
        <mxCell id="38kEomMLc0x0vmcq4sSD-15" style="edgeStyle=orthogonalEdgeStyle;rounded=0;orthogonalLoop=1;jettySize=auto;html=1;exitX=0.25;exitY=0;exitDx=0;exitDy=0;fontSize=17;" edge="1" parent="38kEomMLc0x0vmcq4sSD-1" source="38kEomMLc0x0vmcq4sSD-14" target="38kEomMLc0x0vmcq4sSD-8">
          <mxGeometry relative="1" as="geometry" />
        </mxCell>
        <mxCell id="38kEomMLc0x0vmcq4sSD-16" style="edgeStyle=orthogonalEdgeStyle;rounded=0;orthogonalLoop=1;jettySize=auto;html=1;exitX=0;exitY=0.25;exitDx=0;exitDy=0;entryX=0.807;entryY=1.011;entryDx=0;entryDy=0;entryPerimeter=0;fontSize=17;" edge="1" parent="38kEomMLc0x0vmcq4sSD-1" source="38kEomMLc0x0vmcq4sSD-14" target="38kEomMLc0x0vmcq4sSD-12">
          <mxGeometry relative="1" as="geometry" />
        </mxCell>
        <mxCell id="38kEomMLc0x0vmcq4sSD-14" value="Errors only has this structure because we are using express-validator" style="rounded=0;whiteSpace=wrap;html=1;fontSize=17;fillColor=#dae8fc;strokeColor=#6c8ebf;fontStyle=2" vertex="1" parent="38kEomMLc0x0vmcq4sSD-1">
          <mxGeometry x="850" y="470" width="260" height="90" as="geometry" />
        </mxCell>
      </root>
    </mxGraphModel>
  </diagram>
  <diagram name="04 - servs" id="QMtNCGyN0l7XhgbLMw89">
    <mxGraphModel dx="858" dy="422" grid="1" gridSize="10" guides="1" tooltips="1" connect="1" arrows="1" fold="1" page="1" pageScale="1" pageWidth="1920" pageHeight="1200" math="0" shadow="0">
      <root>
        <mxCell id="SmIH3oxcbD7buCBe1zFX-0" />
        <mxCell id="SmIH3oxcbD7buCBe1zFX-1" parent="SmIH3oxcbD7buCBe1zFX-0" />
        <mxCell id="SmIH3oxcbD7buCBe1zFX-2" value="" style="strokeWidth=1;shadow=0;dashed=0;align=center;html=1;shape=mxgraph.mockup.containers.browserWindow;rSize=0;strokeColor=#666666;strokeColor2=#008cff;strokeColor3=#c4c4c4;mainText=,;recursiveResize=0;fontStyle=1" vertex="1" parent="SmIH3oxcbD7buCBe1zFX-1">
          <mxGeometry x="310" y="210" width="310" height="390" as="geometry" />
        </mxCell>
        <mxCell id="SmIH3oxcbD7buCBe1zFX-3" value="Page 1" style="strokeWidth=1;shadow=0;dashed=0;align=center;html=1;shape=mxgraph.mockup.containers.anchor;fontSize=17;fontColor=#666666;align=left;" vertex="1" parent="SmIH3oxcbD7buCBe1zFX-2">
          <mxGeometry x="60" y="12" width="110" height="26" as="geometry" />
        </mxCell>
        <mxCell id="SmIH3oxcbD7buCBe1zFX-4" value="" style="strokeWidth=1;shadow=0;dashed=0;align=center;html=1;shape=mxgraph.mockup.containers.anchor;rSize=0;fontSize=17;fontColor=#666666;align=left;" vertex="1" parent="SmIH3oxcbD7buCBe1zFX-2">
          <mxGeometry x="130" y="60" width="250" height="26" as="geometry" />
        </mxCell>
        <mxCell id="SmIH3oxcbD7buCBe1zFX-5" value="React App" style="rounded=0;whiteSpace=wrap;html=1;fontSize=22;fillColor=#ffe6cc;strokeColor=#d79b00;fontStyle=1" vertex="1" parent="SmIH3oxcbD7buCBe1zFX-2">
          <mxGeometry x="75" y="180" width="160" height="120" as="geometry" />
        </mxCell>
        <mxCell id="SmIH3oxcbD7buCBe1zFX-6" value="Auth Service" style="rounded=0;whiteSpace=wrap;html=1;fillColor=#f5f5f5;strokeColor=#666666;fontColor=#333333;fontStyle=1;fontSize=19;" vertex="1" parent="SmIH3oxcbD7buCBe1zFX-1">
          <mxGeometry x="820" y="230" width="190" height="35" as="geometry" />
        </mxCell>
        <mxCell id="SmIH3oxcbD7buCBe1zFX-7" value="" style="rounded=0;whiteSpace=wrap;html=1;fillColor=#f5f5f5;strokeColor=#666666;fontColor=#333333;fontStyle=1;fontSize=19;" vertex="1" parent="SmIH3oxcbD7buCBe1zFX-1">
          <mxGeometry x="820" y="265" width="190" height="60" as="geometry" />
        </mxCell>
        <mxCell id="SmIH3oxcbD7buCBe1zFX-8" value="Express + express-validator" style="rounded=0;whiteSpace=wrap;html=1;fontSize=15;" vertex="1" parent="SmIH3oxcbD7buCBe1zFX-1">
          <mxGeometry x="850" y="270" width="130" height="50" as="geometry" />
        </mxCell>
        <mxCell id="SmIH3oxcbD7buCBe1zFX-9" value="" style="endArrow=classic;html=1;fontSize=15;" edge="1" parent="SmIH3oxcbD7buCBe1zFX-1">
          <mxGeometry width="50" height="50" relative="1" as="geometry">
            <mxPoint x="620" y="250" as="sourcePoint" />
            <mxPoint x="820" y="250" as="targetPoint" />
          </mxGeometry>
        </mxCell>
        <mxCell id="SmIH3oxcbD7buCBe1zFX-10" value="Invalid Data" style="rounded=0;whiteSpace=wrap;html=1;fontSize=15;fillColor=#f8cecc;strokeColor=#b85450;" vertex="1" parent="SmIH3oxcbD7buCBe1zFX-1">
          <mxGeometry x="650" y="230" width="150" height="20" as="geometry" />
        </mxCell>
        <mxCell id="SmIH3oxcbD7buCBe1zFX-11" value="" style="endArrow=classic;html=1;fontSize=15;" edge="1" parent="SmIH3oxcbD7buCBe1zFX-1">
          <mxGeometry width="50" height="50" relative="1" as="geometry">
            <mxPoint x="820" y="279.9999999999999" as="sourcePoint" />
            <mxPoint x="620" y="279.9999999999999" as="targetPoint" />
          </mxGeometry>
        </mxCell>
        <mxCell id="SmIH3oxcbD7buCBe1zFX-12" value="[ { msg: &#39;Bad Email&#39;, param: &#39;email&#39; } ]&amp;nbsp;" style="rounded=0;whiteSpace=wrap;html=1;fontSize=15;fillColor=#f8cecc;strokeColor=#b85450;fontStyle=1" vertex="1" parent="SmIH3oxcbD7buCBe1zFX-1">
          <mxGeometry x="650" y="280" width="150" height="50" as="geometry" />
        </mxCell>
        <mxCell id="SmIH3oxcbD7buCBe1zFX-16" value="Orders Service" style="rounded=0;whiteSpace=wrap;html=1;fillColor=#f5f5f5;strokeColor=#666666;fontColor=#333333;fontStyle=1;fontSize=19;" vertex="1" parent="SmIH3oxcbD7buCBe1zFX-1">
          <mxGeometry x="820" y="370" width="190" height="35" as="geometry" />
        </mxCell>
        <mxCell id="SmIH3oxcbD7buCBe1zFX-17" value="" style="rounded=0;whiteSpace=wrap;html=1;fillColor=#f5f5f5;strokeColor=#666666;fontColor=#333333;fontStyle=1;fontSize=19;" vertex="1" parent="SmIH3oxcbD7buCBe1zFX-1">
          <mxGeometry x="820" y="405" width="190" height="60" as="geometry" />
        </mxCell>
        <mxCell id="SmIH3oxcbD7buCBe1zFX-18" value="Ruby on Rails" style="rounded=0;whiteSpace=wrap;html=1;fontSize=15;fillColor=#e1d5e7;strokeColor=#9673a6;" vertex="1" parent="SmIH3oxcbD7buCBe1zFX-1">
          <mxGeometry x="850" y="410" width="130" height="50" as="geometry" />
        </mxCell>
        <mxCell id="SmIH3oxcbD7buCBe1zFX-19" value="Payments Service" style="rounded=0;whiteSpace=wrap;html=1;fillColor=#f5f5f5;strokeColor=#666666;fontColor=#333333;fontStyle=1;fontSize=19;" vertex="1" parent="SmIH3oxcbD7buCBe1zFX-1">
          <mxGeometry x="820" y="505" width="190" height="35" as="geometry" />
        </mxCell>
        <mxCell id="SmIH3oxcbD7buCBe1zFX-20" value="" style="rounded=0;whiteSpace=wrap;html=1;fillColor=#f5f5f5;strokeColor=#666666;fontColor=#333333;fontStyle=1;fontSize=19;" vertex="1" parent="SmIH3oxcbD7buCBe1zFX-1">
          <mxGeometry x="820" y="540" width="190" height="60" as="geometry" />
        </mxCell>
        <mxCell id="SmIH3oxcbD7buCBe1zFX-21" value="Java Spring" style="rounded=0;whiteSpace=wrap;html=1;fontSize=15;fillColor=#d5e8d4;strokeColor=#82b366;" vertex="1" parent="SmIH3oxcbD7buCBe1zFX-1">
          <mxGeometry x="850" y="545" width="130" height="50" as="geometry" />
        </mxCell>
        <mxCell id="SmIH3oxcbD7buCBe1zFX-22" value="" style="endArrow=classic;html=1;fontSize=15;" edge="1" parent="SmIH3oxcbD7buCBe1zFX-1">
          <mxGeometry width="50" height="50" relative="1" as="geometry">
            <mxPoint x="620.0000000000002" y="410.0000000000001" as="sourcePoint" />
            <mxPoint x="820" y="410.0000000000001" as="targetPoint" />
          </mxGeometry>
        </mxCell>
        <mxCell id="SmIH3oxcbD7buCBe1zFX-23" value="Invalid Data" style="rounded=0;whiteSpace=wrap;html=1;fontSize=15;fillColor=#f8cecc;strokeColor=#b85450;" vertex="1" parent="SmIH3oxcbD7buCBe1zFX-1">
          <mxGeometry x="650" y="390" width="150" height="20" as="geometry" />
        </mxCell>
        <mxCell id="SmIH3oxcbD7buCBe1zFX-24" value="" style="endArrow=classic;html=1;fontSize=15;" edge="1" parent="SmIH3oxcbD7buCBe1zFX-1">
          <mxGeometry width="50" height="50" relative="1" as="geometry">
            <mxPoint x="820" y="439.9999999999999" as="sourcePoint" />
            <mxPoint x="620.0000000000002" y="439.9999999999999" as="targetPoint" />
          </mxGeometry>
        </mxCell>
        <mxCell id="SmIH3oxcbD7buCBe1zFX-25" value="{ status: &#39;400&#39;, err: &#39;Invalid order&#39; }" style="rounded=0;whiteSpace=wrap;html=1;fontSize=15;fillColor=#f8cecc;strokeColor=#b85450;fontStyle=1" vertex="1" parent="SmIH3oxcbD7buCBe1zFX-1">
          <mxGeometry x="650" y="440" width="150" height="50" as="geometry" />
        </mxCell>
        <mxCell id="SmIH3oxcbD7buCBe1zFX-26" value="" style="endArrow=classic;html=1;fontSize=15;" edge="1" parent="SmIH3oxcbD7buCBe1zFX-1">
          <mxGeometry width="50" height="50" relative="1" as="geometry">
            <mxPoint x="620.0000000000002" y="550" as="sourcePoint" />
            <mxPoint x="820" y="550" as="targetPoint" />
          </mxGeometry>
        </mxCell>
        <mxCell id="SmIH3oxcbD7buCBe1zFX-27" value="Invalid Data" style="rounded=0;whiteSpace=wrap;html=1;fontSize=15;fillColor=#f8cecc;strokeColor=#b85450;" vertex="1" parent="SmIH3oxcbD7buCBe1zFX-1">
          <mxGeometry x="650" y="530" width="150" height="20" as="geometry" />
        </mxCell>
        <mxCell id="SmIH3oxcbD7buCBe1zFX-28" value="" style="endArrow=classic;html=1;fontSize=15;" edge="1" parent="SmIH3oxcbD7buCBe1zFX-1">
          <mxGeometry width="50" height="50" relative="1" as="geometry">
            <mxPoint x="820" y="580" as="sourcePoint" />
            <mxPoint x="620.0000000000002" y="580" as="targetPoint" />
          </mxGeometry>
        </mxCell>
        <mxCell id="SmIH3oxcbD7buCBe1zFX-29" value="{ statusCode: &#39;400&#39;, errorDetails: [ ] }" style="rounded=0;whiteSpace=wrap;html=1;fontSize=15;fillColor=#f8cecc;strokeColor=#b85450;fontStyle=1" vertex="1" parent="SmIH3oxcbD7buCBe1zFX-1">
          <mxGeometry x="650" y="580" width="150" height="50" as="geometry" />
        </mxCell>
      </root>
    </mxGraphModel>
  </diagram>
  <diagram name="05 - react" id="AUtCsXgAEykXo1ereiqa">
    <mxGraphModel dx="858" dy="422" grid="1" gridSize="10" guides="1" tooltips="1" connect="1" arrows="1" fold="1" page="1" pageScale="1" pageWidth="1920" pageHeight="1200" math="0" shadow="0">
      <root>
        <mxCell id="atZXH3EC5jh-14-C5nh9-0" />
        <mxCell id="atZXH3EC5jh-14-C5nh9-1" parent="atZXH3EC5jh-14-C5nh9-0" />
        <mxCell id="atZXH3EC5jh-14-C5nh9-2" value="" style="strokeWidth=1;shadow=0;dashed=0;align=center;html=1;shape=mxgraph.mockup.containers.browserWindow;rSize=0;strokeColor=#666666;strokeColor2=#008cff;strokeColor3=#c4c4c4;mainText=,;recursiveResize=0;fontStyle=1" vertex="1" parent="atZXH3EC5jh-14-C5nh9-1">
          <mxGeometry x="310" y="210" width="310" height="390" as="geometry" />
        </mxCell>
        <mxCell id="atZXH3EC5jh-14-C5nh9-3" value="Page 1" style="strokeWidth=1;shadow=0;dashed=0;align=center;html=1;shape=mxgraph.mockup.containers.anchor;fontSize=17;fontColor=#666666;align=left;" vertex="1" parent="atZXH3EC5jh-14-C5nh9-2">
          <mxGeometry x="60" y="12" width="110" height="26" as="geometry" />
        </mxCell>
        <mxCell id="atZXH3EC5jh-14-C5nh9-4" value="" style="strokeWidth=1;shadow=0;dashed=0;align=center;html=1;shape=mxgraph.mockup.containers.anchor;rSize=0;fontSize=17;fontColor=#666666;align=left;" vertex="1" parent="atZXH3EC5jh-14-C5nh9-2">
          <mxGeometry x="130" y="60" width="250" height="26" as="geometry" />
        </mxCell>
        <mxCell id="atZXH3EC5jh-14-C5nh9-5" value="React App &lt;i&gt;with knowledge of how to parse 30 different kinds of error responses!&lt;/i&gt;" style="rounded=0;whiteSpace=wrap;html=1;fontSize=22;fillColor=#ffe6cc;strokeColor=#d79b00;fontStyle=1" vertex="1" parent="atZXH3EC5jh-14-C5nh9-2">
          <mxGeometry x="20" y="140" width="270" height="210" as="geometry" />
        </mxCell>
        <mxCell id="atZXH3EC5jh-14-C5nh9-6" value="Auth Service" style="rounded=0;whiteSpace=wrap;html=1;fillColor=#f5f5f5;strokeColor=#666666;fontColor=#333333;fontStyle=1;fontSize=19;" vertex="1" parent="atZXH3EC5jh-14-C5nh9-1">
          <mxGeometry x="820" y="230" width="190" height="35" as="geometry" />
        </mxCell>
        <mxCell id="atZXH3EC5jh-14-C5nh9-7" value="" style="rounded=0;whiteSpace=wrap;html=1;fillColor=#f5f5f5;strokeColor=#666666;fontColor=#333333;fontStyle=1;fontSize=19;" vertex="1" parent="atZXH3EC5jh-14-C5nh9-1">
          <mxGeometry x="820" y="265" width="190" height="60" as="geometry" />
        </mxCell>
        <mxCell id="atZXH3EC5jh-14-C5nh9-8" value="Express + express-validator" style="rounded=0;whiteSpace=wrap;html=1;fontSize=15;" vertex="1" parent="atZXH3EC5jh-14-C5nh9-1">
          <mxGeometry x="850" y="270" width="130" height="50" as="geometry" />
        </mxCell>
        <mxCell id="atZXH3EC5jh-14-C5nh9-9" value="" style="endArrow=classic;html=1;fontSize=15;" edge="1" parent="atZXH3EC5jh-14-C5nh9-1">
          <mxGeometry width="50" height="50" relative="1" as="geometry">
            <mxPoint x="620" y="250" as="sourcePoint" />
            <mxPoint x="820" y="250" as="targetPoint" />
          </mxGeometry>
        </mxCell>
        <mxCell id="atZXH3EC5jh-14-C5nh9-10" value="Invalid Data" style="rounded=0;whiteSpace=wrap;html=1;fontSize=15;fillColor=#f8cecc;strokeColor=#b85450;" vertex="1" parent="atZXH3EC5jh-14-C5nh9-1">
          <mxGeometry x="650" y="230" width="150" height="20" as="geometry" />
        </mxCell>
        <mxCell id="atZXH3EC5jh-14-C5nh9-11" value="" style="endArrow=classic;html=1;fontSize=15;" edge="1" parent="atZXH3EC5jh-14-C5nh9-1">
          <mxGeometry width="50" height="50" relative="1" as="geometry">
            <mxPoint x="820" y="279.9999999999999" as="sourcePoint" />
            <mxPoint x="620" y="279.9999999999999" as="targetPoint" />
          </mxGeometry>
        </mxCell>
        <mxCell id="atZXH3EC5jh-14-C5nh9-12" value="[ { msg: &#39;Bad Email&#39;, param: &#39;email&#39; } ]&amp;nbsp;" style="rounded=0;whiteSpace=wrap;html=1;fontSize=15;fillColor=#f8cecc;strokeColor=#b85450;fontStyle=1" vertex="1" parent="atZXH3EC5jh-14-C5nh9-1">
          <mxGeometry x="650" y="280" width="150" height="50" as="geometry" />
        </mxCell>
        <mxCell id="atZXH3EC5jh-14-C5nh9-13" value="Orders Service" style="rounded=0;whiteSpace=wrap;html=1;fillColor=#f5f5f5;strokeColor=#666666;fontColor=#333333;fontStyle=1;fontSize=19;" vertex="1" parent="atZXH3EC5jh-14-C5nh9-1">
          <mxGeometry x="820" y="370" width="190" height="35" as="geometry" />
        </mxCell>
        <mxCell id="atZXH3EC5jh-14-C5nh9-14" value="" style="rounded=0;whiteSpace=wrap;html=1;fillColor=#f5f5f5;strokeColor=#666666;fontColor=#333333;fontStyle=1;fontSize=19;" vertex="1" parent="atZXH3EC5jh-14-C5nh9-1">
          <mxGeometry x="820" y="405" width="190" height="60" as="geometry" />
        </mxCell>
        <mxCell id="atZXH3EC5jh-14-C5nh9-15" value="Ruby on Rails" style="rounded=0;whiteSpace=wrap;html=1;fontSize=15;fillColor=#e1d5e7;strokeColor=#9673a6;" vertex="1" parent="atZXH3EC5jh-14-C5nh9-1">
          <mxGeometry x="850" y="410" width="130" height="50" as="geometry" />
        </mxCell>
        <mxCell id="atZXH3EC5jh-14-C5nh9-16" value="Payments Service" style="rounded=0;whiteSpace=wrap;html=1;fillColor=#f5f5f5;strokeColor=#666666;fontColor=#333333;fontStyle=1;fontSize=19;" vertex="1" parent="atZXH3EC5jh-14-C5nh9-1">
          <mxGeometry x="820" y="505" width="190" height="35" as="geometry" />
        </mxCell>
        <mxCell id="atZXH3EC5jh-14-C5nh9-17" value="" style="rounded=0;whiteSpace=wrap;html=1;fillColor=#f5f5f5;strokeColor=#666666;fontColor=#333333;fontStyle=1;fontSize=19;" vertex="1" parent="atZXH3EC5jh-14-C5nh9-1">
          <mxGeometry x="820" y="540" width="190" height="60" as="geometry" />
        </mxCell>
        <mxCell id="atZXH3EC5jh-14-C5nh9-18" value="Java Spring" style="rounded=0;whiteSpace=wrap;html=1;fontSize=15;fillColor=#d5e8d4;strokeColor=#82b366;" vertex="1" parent="atZXH3EC5jh-14-C5nh9-1">
          <mxGeometry x="850" y="545" width="130" height="50" as="geometry" />
        </mxCell>
        <mxCell id="atZXH3EC5jh-14-C5nh9-19" value="" style="endArrow=classic;html=1;fontSize=15;" edge="1" parent="atZXH3EC5jh-14-C5nh9-1">
          <mxGeometry width="50" height="50" relative="1" as="geometry">
            <mxPoint x="620.0000000000002" y="410.0000000000001" as="sourcePoint" />
            <mxPoint x="820" y="410.0000000000001" as="targetPoint" />
          </mxGeometry>
        </mxCell>
        <mxCell id="atZXH3EC5jh-14-C5nh9-20" value="Invalid Data" style="rounded=0;whiteSpace=wrap;html=1;fontSize=15;fillColor=#f8cecc;strokeColor=#b85450;" vertex="1" parent="atZXH3EC5jh-14-C5nh9-1">
          <mxGeometry x="650" y="390" width="150" height="20" as="geometry" />
        </mxCell>
        <mxCell id="atZXH3EC5jh-14-C5nh9-21" value="" style="endArrow=classic;html=1;fontSize=15;" edge="1" parent="atZXH3EC5jh-14-C5nh9-1">
          <mxGeometry width="50" height="50" relative="1" as="geometry">
            <mxPoint x="820" y="439.9999999999999" as="sourcePoint" />
            <mxPoint x="620.0000000000002" y="439.9999999999999" as="targetPoint" />
          </mxGeometry>
        </mxCell>
        <mxCell id="atZXH3EC5jh-14-C5nh9-22" value="{ status: &#39;400&#39;, err: &#39;Invalid order&#39; }" style="rounded=0;whiteSpace=wrap;html=1;fontSize=15;fillColor=#f8cecc;strokeColor=#b85450;fontStyle=1" vertex="1" parent="atZXH3EC5jh-14-C5nh9-1">
          <mxGeometry x="650" y="440" width="150" height="50" as="geometry" />
        </mxCell>
        <mxCell id="atZXH3EC5jh-14-C5nh9-23" value="" style="endArrow=classic;html=1;fontSize=15;" edge="1" parent="atZXH3EC5jh-14-C5nh9-1">
          <mxGeometry width="50" height="50" relative="1" as="geometry">
            <mxPoint x="620.0000000000002" y="550" as="sourcePoint" />
            <mxPoint x="820" y="550" as="targetPoint" />
          </mxGeometry>
        </mxCell>
        <mxCell id="atZXH3EC5jh-14-C5nh9-24" value="Invalid Data" style="rounded=0;whiteSpace=wrap;html=1;fontSize=15;fillColor=#f8cecc;strokeColor=#b85450;" vertex="1" parent="atZXH3EC5jh-14-C5nh9-1">
          <mxGeometry x="650" y="530" width="150" height="20" as="geometry" />
        </mxCell>
        <mxCell id="atZXH3EC5jh-14-C5nh9-25" value="" style="endArrow=classic;html=1;fontSize=15;" edge="1" parent="atZXH3EC5jh-14-C5nh9-1">
          <mxGeometry width="50" height="50" relative="1" as="geometry">
            <mxPoint x="820" y="580" as="sourcePoint" />
            <mxPoint x="620.0000000000002" y="580" as="targetPoint" />
          </mxGeometry>
        </mxCell>
        <mxCell id="atZXH3EC5jh-14-C5nh9-26" value="{ statusCode: &#39;400&#39;, errorDetails: [ ] }" style="rounded=0;whiteSpace=wrap;html=1;fontSize=15;fillColor=#f8cecc;strokeColor=#b85450;fontStyle=1" vertex="1" parent="atZXH3EC5jh-14-C5nh9-1">
          <mxGeometry x="650" y="580" width="150" height="50" as="geometry" />
        </mxCell>
      </root>
    </mxGraphModel>
  </diagram>
  <diagram name="06 - structure" id="4W3FAWnrngmnc6feT0vQ">
    <mxGraphModel dx="858" dy="422" grid="1" gridSize="10" guides="1" tooltips="1" connect="1" arrows="1" fold="1" page="1" pageScale="1" pageWidth="1920" pageHeight="1200" math="0" shadow="0">
      <root>
        <mxCell id="aNV9o8neW5SjExY3BDpv-0" />
        <mxCell id="aNV9o8neW5SjExY3BDpv-1" parent="aNV9o8neW5SjExY3BDpv-0" />
        <mxCell id="aNV9o8neW5SjExY3BDpv-2" value="" style="strokeWidth=1;shadow=0;dashed=0;align=center;html=1;shape=mxgraph.mockup.containers.browserWindow;rSize=0;strokeColor=#666666;strokeColor2=#008cff;strokeColor3=#c4c4c4;mainText=,;recursiveResize=0;fontStyle=1" vertex="1" parent="aNV9o8neW5SjExY3BDpv-1">
          <mxGeometry x="310" y="210" width="310" height="390" as="geometry" />
        </mxCell>
        <mxCell id="aNV9o8neW5SjExY3BDpv-3" value="Page 1" style="strokeWidth=1;shadow=0;dashed=0;align=center;html=1;shape=mxgraph.mockup.containers.anchor;fontSize=17;fontColor=#666666;align=left;" vertex="1" parent="aNV9o8neW5SjExY3BDpv-2">
          <mxGeometry x="60" y="12" width="110" height="26" as="geometry" />
        </mxCell>
        <mxCell id="aNV9o8neW5SjExY3BDpv-4" value="" style="strokeWidth=1;shadow=0;dashed=0;align=center;html=1;shape=mxgraph.mockup.containers.anchor;rSize=0;fontSize=17;fontColor=#666666;align=left;" vertex="1" parent="aNV9o8neW5SjExY3BDpv-2">
          <mxGeometry x="130" y="60" width="250" height="26" as="geometry" />
        </mxCell>
        <mxCell id="aNV9o8neW5SjExY3BDpv-5" value="React App &lt;i&gt;with knowledge of how to parse 1 kind of error response&lt;/i&gt;" style="rounded=0;whiteSpace=wrap;html=1;fontSize=22;fillColor=#ffe6cc;strokeColor=#d79b00;fontStyle=1" vertex="1" parent="aNV9o8neW5SjExY3BDpv-2">
          <mxGeometry x="20" y="140" width="270" height="210" as="geometry" />
        </mxCell>
        <mxCell id="aNV9o8neW5SjExY3BDpv-6" value="Auth Service" style="rounded=0;whiteSpace=wrap;html=1;fillColor=#f5f5f5;strokeColor=#666666;fontColor=#333333;fontStyle=1;fontSize=19;" vertex="1" parent="aNV9o8neW5SjExY3BDpv-1">
          <mxGeometry x="820" y="230" width="190" height="35" as="geometry" />
        </mxCell>
        <mxCell id="aNV9o8neW5SjExY3BDpv-7" value="" style="rounded=0;whiteSpace=wrap;html=1;fillColor=#f5f5f5;strokeColor=#666666;fontColor=#333333;fontStyle=1;fontSize=19;" vertex="1" parent="aNV9o8neW5SjExY3BDpv-1">
          <mxGeometry x="820" y="265" width="190" height="60" as="geometry" />
        </mxCell>
        <mxCell id="aNV9o8neW5SjExY3BDpv-8" value="Express + express-validator" style="rounded=0;whiteSpace=wrap;html=1;fontSize=15;" vertex="1" parent="aNV9o8neW5SjExY3BDpv-1">
          <mxGeometry x="850" y="270" width="130" height="50" as="geometry" />
        </mxCell>
        <mxCell id="aNV9o8neW5SjExY3BDpv-9" value="" style="endArrow=classic;html=1;fontSize=15;" edge="1" parent="aNV9o8neW5SjExY3BDpv-1">
          <mxGeometry width="50" height="50" relative="1" as="geometry">
            <mxPoint x="620" y="250" as="sourcePoint" />
            <mxPoint x="820" y="250" as="targetPoint" />
          </mxGeometry>
        </mxCell>
        <mxCell id="aNV9o8neW5SjExY3BDpv-10" value="Invalid Data" style="rounded=0;whiteSpace=wrap;html=1;fontSize=15;fillColor=#f8cecc;strokeColor=#b85450;" vertex="1" parent="aNV9o8neW5SjExY3BDpv-1">
          <mxGeometry x="650" y="230" width="150" height="20" as="geometry" />
        </mxCell>
        <mxCell id="aNV9o8neW5SjExY3BDpv-11" value="" style="endArrow=classic;html=1;fontSize=15;" edge="1" parent="aNV9o8neW5SjExY3BDpv-1">
          <mxGeometry width="50" height="50" relative="1" as="geometry">
            <mxPoint x="820" y="279.9999999999999" as="sourcePoint" />
            <mxPoint x="620" y="279.9999999999999" as="targetPoint" />
          </mxGeometry>
        </mxCell>
        <mxCell id="aNV9o8neW5SjExY3BDpv-12" value="[ { message: &#39;Bad Email&#39;, field: &#39;email&#39; } ]&amp;nbsp;" style="rounded=0;whiteSpace=wrap;html=1;fontSize=15;fillColor=#f8cecc;strokeColor=#b85450;fontStyle=1" vertex="1" parent="aNV9o8neW5SjExY3BDpv-1">
          <mxGeometry x="650" y="280" width="150" height="50" as="geometry" />
        </mxCell>
        <mxCell id="aNV9o8neW5SjExY3BDpv-13" value="Orders Service" style="rounded=0;whiteSpace=wrap;html=1;fillColor=#f5f5f5;strokeColor=#666666;fontColor=#333333;fontStyle=1;fontSize=19;" vertex="1" parent="aNV9o8neW5SjExY3BDpv-1">
          <mxGeometry x="820" y="370" width="190" height="35" as="geometry" />
        </mxCell>
        <mxCell id="aNV9o8neW5SjExY3BDpv-14" value="" style="rounded=0;whiteSpace=wrap;html=1;fillColor=#f5f5f5;strokeColor=#666666;fontColor=#333333;fontStyle=1;fontSize=19;" vertex="1" parent="aNV9o8neW5SjExY3BDpv-1">
          <mxGeometry x="820" y="405" width="190" height="60" as="geometry" />
        </mxCell>
        <mxCell id="aNV9o8neW5SjExY3BDpv-15" value="Ruby on Rails" style="rounded=0;whiteSpace=wrap;html=1;fontSize=15;fillColor=#e1d5e7;strokeColor=#9673a6;" vertex="1" parent="aNV9o8neW5SjExY3BDpv-1">
          <mxGeometry x="850" y="410" width="130" height="50" as="geometry" />
        </mxCell>
        <mxCell id="aNV9o8neW5SjExY3BDpv-16" value="Payments Service" style="rounded=0;whiteSpace=wrap;html=1;fillColor=#f5f5f5;strokeColor=#666666;fontColor=#333333;fontStyle=1;fontSize=19;" vertex="1" parent="aNV9o8neW5SjExY3BDpv-1">
          <mxGeometry x="820" y="505" width="190" height="35" as="geometry" />
        </mxCell>
        <mxCell id="aNV9o8neW5SjExY3BDpv-17" value="" style="rounded=0;whiteSpace=wrap;html=1;fillColor=#f5f5f5;strokeColor=#666666;fontColor=#333333;fontStyle=1;fontSize=19;" vertex="1" parent="aNV9o8neW5SjExY3BDpv-1">
          <mxGeometry x="820" y="540" width="190" height="60" as="geometry" />
        </mxCell>
        <mxCell id="aNV9o8neW5SjExY3BDpv-18" value="Java Spring" style="rounded=0;whiteSpace=wrap;html=1;fontSize=15;fillColor=#d5e8d4;strokeColor=#82b366;" vertex="1" parent="aNV9o8neW5SjExY3BDpv-1">
          <mxGeometry x="850" y="545" width="130" height="50" as="geometry" />
        </mxCell>
        <mxCell id="aNV9o8neW5SjExY3BDpv-19" value="" style="endArrow=classic;html=1;fontSize=15;" edge="1" parent="aNV9o8neW5SjExY3BDpv-1">
          <mxGeometry width="50" height="50" relative="1" as="geometry">
            <mxPoint x="620.0000000000002" y="410.0000000000001" as="sourcePoint" />
            <mxPoint x="820" y="410.0000000000001" as="targetPoint" />
          </mxGeometry>
        </mxCell>
        <mxCell id="aNV9o8neW5SjExY3BDpv-20" value="Invalid Data" style="rounded=0;whiteSpace=wrap;html=1;fontSize=15;fillColor=#f8cecc;strokeColor=#b85450;" vertex="1" parent="aNV9o8neW5SjExY3BDpv-1">
          <mxGeometry x="650" y="390" width="150" height="20" as="geometry" />
        </mxCell>
        <mxCell id="aNV9o8neW5SjExY3BDpv-21" value="" style="endArrow=classic;html=1;fontSize=15;" edge="1" parent="aNV9o8neW5SjExY3BDpv-1">
          <mxGeometry width="50" height="50" relative="1" as="geometry">
            <mxPoint x="820" y="439.9999999999999" as="sourcePoint" />
            <mxPoint x="620.0000000000002" y="439.9999999999999" as="targetPoint" />
          </mxGeometry>
        </mxCell>
        <mxCell id="aNV9o8neW5SjExY3BDpv-22" value="[ { msg: &#39;Bad order&#39; } ]" style="rounded=0;whiteSpace=wrap;html=1;fontSize=15;fillColor=#f8cecc;strokeColor=#b85450;fontStyle=1" vertex="1" parent="aNV9o8neW5SjExY3BDpv-1">
          <mxGeometry x="650" y="440" width="150" height="50" as="geometry" />
        </mxCell>
        <mxCell id="aNV9o8neW5SjExY3BDpv-23" value="" style="endArrow=classic;html=1;fontSize=15;" edge="1" parent="aNV9o8neW5SjExY3BDpv-1">
          <mxGeometry width="50" height="50" relative="1" as="geometry">
            <mxPoint x="620.0000000000002" y="550" as="sourcePoint" />
            <mxPoint x="820" y="550" as="targetPoint" />
          </mxGeometry>
        </mxCell>
        <mxCell id="aNV9o8neW5SjExY3BDpv-24" value="Invalid Data" style="rounded=0;whiteSpace=wrap;html=1;fontSize=15;fillColor=#f8cecc;strokeColor=#b85450;" vertex="1" parent="aNV9o8neW5SjExY3BDpv-1">
          <mxGeometry x="650" y="530" width="150" height="20" as="geometry" />
        </mxCell>
        <mxCell id="aNV9o8neW5SjExY3BDpv-25" value="" style="endArrow=classic;html=1;fontSize=15;" edge="1" parent="aNV9o8neW5SjExY3BDpv-1">
          <mxGeometry width="50" height="50" relative="1" as="geometry">
            <mxPoint x="820" y="580" as="sourcePoint" />
            <mxPoint x="620.0000000000002" y="580" as="targetPoint" />
          </mxGeometry>
        </mxCell>
        <mxCell id="aNV9o8neW5SjExY3BDpv-26" value="[ { msg: &#39;Bad payment&#39; } ]" style="rounded=0;whiteSpace=wrap;html=1;fontSize=15;fillColor=#f8cecc;strokeColor=#b85450;fontStyle=1" vertex="1" parent="aNV9o8neW5SjExY3BDpv-1">
          <mxGeometry x="650" y="580" width="150" height="50" as="geometry" />
        </mxCell>
      </root>
    </mxGraphModel>
  </diagram>
  <diagram id="9-ZIJNQdAwyrI57YGz4C" name="08 - errors">
    <mxGraphModel dx="812" dy="399" grid="1" gridSize="10" guides="1" tooltips="1" connect="1" arrows="1" fold="1" page="1" pageScale="1" pageWidth="1920" pageHeight="1200" math="0" shadow="0">
      <root>
        <mxCell id="GFzOtAfr9gXg4h4BnAPL-0" />
        <mxCell id="GFzOtAfr9gXg4h4BnAPL-1" parent="GFzOtAfr9gXg4h4BnAPL-0" />
        <mxCell id="GFzOtAfr9gXg4h4BnAPL-6" style="edgeStyle=orthogonalEdgeStyle;rounded=0;orthogonalLoop=1;jettySize=auto;html=1;exitX=0.5;exitY=1;exitDx=0;exitDy=0;entryX=0.5;entryY=0;entryDx=0;entryDy=0;fontSize=18;" edge="1" parent="GFzOtAfr9gXg4h4BnAPL-1" source="GFzOtAfr9gXg4h4BnAPL-2" target="GFzOtAfr9gXg4h4BnAPL-5">
          <mxGeometry relative="1" as="geometry" />
        </mxCell>
        <mxCell id="GFzOtAfr9gXg4h4BnAPL-2" value="Incoming request with email of &#39;laksjd&#39;" style="rounded=0;whiteSpace=wrap;html=1;fontSize=18;fillColor=#dae8fc;strokeColor=#6c8ebf;" vertex="1" parent="GFzOtAfr9gXg4h4BnAPL-1">
          <mxGeometry x="540" y="300" width="240" height="50" as="geometry" />
        </mxCell>
        <mxCell id="GFzOtAfr9gXg4h4BnAPL-4" value="Scenario #1" style="text;html=1;strokeColor=none;fillColor=none;align=center;verticalAlign=middle;whiteSpace=wrap;rounded=0;fontSize=25;" vertex="1" parent="GFzOtAfr9gXg4h4BnAPL-1">
          <mxGeometry x="585" y="270" width="150" height="20" as="geometry" />
        </mxCell>
        <mxCell id="GFzOtAfr9gXg4h4BnAPL-21" style="edgeStyle=orthogonalEdgeStyle;rounded=0;orthogonalLoop=1;jettySize=auto;html=1;exitX=0.5;exitY=1;exitDx=0;exitDy=0;fontSize=18;fontColor=#FF0000;" edge="1" parent="GFzOtAfr9gXg4h4BnAPL-1" source="GFzOtAfr9gXg4h4BnAPL-5" target="GFzOtAfr9gXg4h4BnAPL-8">
          <mxGeometry relative="1" as="geometry" />
        </mxCell>
        <mxCell id="GFzOtAfr9gXg4h4BnAPL-5" value="express-validator" style="rounded=0;whiteSpace=wrap;html=1;fontSize=18;" vertex="1" parent="GFzOtAfr9gXg4h4BnAPL-1">
          <mxGeometry x="540" y="380" width="240" height="50" as="geometry" />
        </mxCell>
        <mxCell id="GFzOtAfr9gXg4h4BnAPL-8" value="X" style="text;html=1;strokeColor=none;fillColor=none;align=center;verticalAlign=middle;whiteSpace=wrap;rounded=0;fontSize=25;fontColor=#FF0000;" vertex="1" parent="GFzOtAfr9gXg4h4BnAPL-1">
          <mxGeometry x="585" y="470" width="150" height="20" as="geometry" />
        </mxCell>
        <mxCell id="GFzOtAfr9gXg4h4BnAPL-9" style="edgeStyle=orthogonalEdgeStyle;rounded=0;orthogonalLoop=1;jettySize=auto;html=1;exitX=0.5;exitY=1;exitDx=0;exitDy=0;entryX=0.5;entryY=0;entryDx=0;entryDy=0;fontSize=18;" edge="1" parent="GFzOtAfr9gXg4h4BnAPL-1" source="GFzOtAfr9gXg4h4BnAPL-10" target="GFzOtAfr9gXg4h4BnAPL-13">
          <mxGeometry relative="1" as="geometry" />
        </mxCell>
        <mxCell id="GFzOtAfr9gXg4h4BnAPL-10" value="Incoming request with email of &#39;test@test.com&#39;" style="rounded=0;whiteSpace=wrap;html=1;fontSize=18;fillColor=#dae8fc;strokeColor=#6c8ebf;" vertex="1" parent="GFzOtAfr9gXg4h4BnAPL-1">
          <mxGeometry x="820" y="300" width="240" height="50" as="geometry" />
        </mxCell>
        <mxCell id="GFzOtAfr9gXg4h4BnAPL-11" value="Scenario #2" style="text;html=1;strokeColor=none;fillColor=none;align=center;verticalAlign=middle;whiteSpace=wrap;rounded=0;fontSize=25;" vertex="1" parent="GFzOtAfr9gXg4h4BnAPL-1">
          <mxGeometry x="865" y="270" width="150" height="20" as="geometry" />
        </mxCell>
        <mxCell id="GFzOtAfr9gXg4h4BnAPL-20" style="edgeStyle=orthogonalEdgeStyle;rounded=0;orthogonalLoop=1;jettySize=auto;html=1;exitX=0.5;exitY=1;exitDx=0;exitDy=0;fontSize=18;fontColor=#FF0000;" edge="1" parent="GFzOtAfr9gXg4h4BnAPL-1" source="GFzOtAfr9gXg4h4BnAPL-13" target="GFzOtAfr9gXg4h4BnAPL-15">
          <mxGeometry relative="1" as="geometry" />
        </mxCell>
        <mxCell id="GFzOtAfr9gXg4h4BnAPL-13" value="express-validator" style="rounded=0;whiteSpace=wrap;html=1;fontSize=18;" vertex="1" parent="GFzOtAfr9gXg4h4BnAPL-1">
          <mxGeometry x="820" y="380" width="240" height="50" as="geometry" />
        </mxCell>
        <mxCell id="GFzOtAfr9gXg4h4BnAPL-22" style="edgeStyle=orthogonalEdgeStyle;rounded=0;orthogonalLoop=1;jettySize=auto;html=1;exitX=0.5;exitY=1;exitDx=0;exitDy=0;fontSize=18;fontColor=#FF0000;" edge="1" parent="GFzOtAfr9gXg4h4BnAPL-1" source="GFzOtAfr9gXg4h4BnAPL-15" target="GFzOtAfr9gXg4h4BnAPL-19">
          <mxGeometry relative="1" as="geometry" />
        </mxCell>
        <mxCell id="GFzOtAfr9gXg4h4BnAPL-15" value="Check to see if email is already in use" style="rounded=0;whiteSpace=wrap;html=1;fontSize=18;" vertex="1" parent="GFzOtAfr9gXg4h4BnAPL-1">
          <mxGeometry x="820" y="470" width="240" height="50" as="geometry" />
        </mxCell>
        <mxCell id="GFzOtAfr9gXg4h4BnAPL-19" value="X" style="text;html=1;strokeColor=none;fillColor=none;align=center;verticalAlign=middle;whiteSpace=wrap;rounded=0;fontSize=25;fontColor=#FF0000;" vertex="1" parent="GFzOtAfr9gXg4h4BnAPL-1">
          <mxGeometry x="865" y="550" width="150" height="20" as="geometry" />
        </mxCell>
        <mxCell id="GFzOtAfr9gXg4h4BnAPL-23" style="edgeStyle=orthogonalEdgeStyle;rounded=0;orthogonalLoop=1;jettySize=auto;html=1;exitX=0.5;exitY=1;exitDx=0;exitDy=0;entryX=0.5;entryY=0;entryDx=0;entryDy=0;fontSize=18;" edge="1" parent="GFzOtAfr9gXg4h4BnAPL-1" source="GFzOtAfr9gXg4h4BnAPL-24" target="GFzOtAfr9gXg4h4BnAPL-27">
          <mxGeometry relative="1" as="geometry" />
        </mxCell>
        <mxCell id="GFzOtAfr9gXg4h4BnAPL-24" value="Incoming request with email of &#39;test@test.com&#39;" style="rounded=0;whiteSpace=wrap;html=1;fontSize=18;fillColor=#dae8fc;strokeColor=#6c8ebf;" vertex="1" parent="GFzOtAfr9gXg4h4BnAPL-1">
          <mxGeometry x="1100" y="300" width="240" height="50" as="geometry" />
        </mxCell>
        <mxCell id="GFzOtAfr9gXg4h4BnAPL-25" value="Scenario #3" style="text;html=1;strokeColor=none;fillColor=none;align=center;verticalAlign=middle;whiteSpace=wrap;rounded=0;fontSize=25;" vertex="1" parent="GFzOtAfr9gXg4h4BnAPL-1">
          <mxGeometry x="1145" y="270" width="150" height="20" as="geometry" />
        </mxCell>
        <mxCell id="GFzOtAfr9gXg4h4BnAPL-26" style="edgeStyle=orthogonalEdgeStyle;rounded=0;orthogonalLoop=1;jettySize=auto;html=1;exitX=0.5;exitY=1;exitDx=0;exitDy=0;fontSize=18;fontColor=#FF0000;" edge="1" parent="GFzOtAfr9gXg4h4BnAPL-1" source="GFzOtAfr9gXg4h4BnAPL-27" target="GFzOtAfr9gXg4h4BnAPL-29">
          <mxGeometry relative="1" as="geometry" />
        </mxCell>
        <mxCell id="GFzOtAfr9gXg4h4BnAPL-27" value="express-validator" style="rounded=0;whiteSpace=wrap;html=1;fontSize=18;" vertex="1" parent="GFzOtAfr9gXg4h4BnAPL-1">
          <mxGeometry x="1100" y="370" width="240" height="50" as="geometry" />
        </mxCell>
        <mxCell id="GFzOtAfr9gXg4h4BnAPL-32" style="edgeStyle=orthogonalEdgeStyle;rounded=0;orthogonalLoop=1;jettySize=auto;html=1;exitX=0.5;exitY=1;exitDx=0;exitDy=0;fontSize=18;fontColor=#FF0000;" edge="1" parent="GFzOtAfr9gXg4h4BnAPL-1" source="GFzOtAfr9gXg4h4BnAPL-29" target="GFzOtAfr9gXg4h4BnAPL-31">
          <mxGeometry relative="1" as="geometry" />
        </mxCell>
        <mxCell id="GFzOtAfr9gXg4h4BnAPL-29" value="Check to see if email is already in use" style="rounded=0;whiteSpace=wrap;html=1;fontSize=18;" vertex="1" parent="GFzOtAfr9gXg4h4BnAPL-1">
          <mxGeometry x="1100" y="440" width="240" height="50" as="geometry" />
        </mxCell>
        <mxCell id="GFzOtAfr9gXg4h4BnAPL-34" style="edgeStyle=orthogonalEdgeStyle;rounded=0;orthogonalLoop=1;jettySize=auto;html=1;exitX=0.5;exitY=1;exitDx=0;exitDy=0;entryX=0.5;entryY=0;entryDx=0;entryDy=0;fontSize=18;fontColor=#FF0000;" edge="1" parent="GFzOtAfr9gXg4h4BnAPL-1" source="GFzOtAfr9gXg4h4BnAPL-31" target="GFzOtAfr9gXg4h4BnAPL-33">
          <mxGeometry relative="1" as="geometry" />
        </mxCell>
        <mxCell id="GFzOtAfr9gXg4h4BnAPL-31" value="Try to create new user" style="rounded=0;whiteSpace=wrap;html=1;fontSize=18;" vertex="1" parent="GFzOtAfr9gXg4h4BnAPL-1">
          <mxGeometry x="1100" y="510" width="240" height="50" as="geometry" />
        </mxCell>
        <mxCell id="GFzOtAfr9gXg4h4BnAPL-33" value="X" style="text;html=1;strokeColor=none;fillColor=none;align=center;verticalAlign=middle;whiteSpace=wrap;rounded=0;fontSize=25;fontColor=#FF0000;" vertex="1" parent="GFzOtAfr9gXg4h4BnAPL-1">
          <mxGeometry x="1145" y="580" width="150" height="20" as="geometry" />
        </mxCell>
      </root>
    </mxGraphModel>
  </diagram>
  <diagram id="YHXMX368VO4Jk-vlM0YJ" name="09 - cap">
    <mxGraphModel dx="1036" dy="510" grid="1" gridSize="10" guides="1" tooltips="1" connect="1" arrows="1" fold="1" page="1" pageScale="1" pageWidth="1920" pageHeight="1200" math="0" shadow="0">
      <root>
        <mxCell id="dLAbs6o8Sz5CSkAgrKQP-0" />
        <mxCell id="dLAbs6o8Sz5CSkAgrKQP-1" parent="dLAbs6o8Sz5CSkAgrKQP-0" />
        <mxCell id="dLAbs6o8Sz5CSkAgrKQP-8" style="edgeStyle=orthogonalEdgeStyle;rounded=0;orthogonalLoop=1;jettySize=auto;html=1;exitX=0.5;exitY=1;exitDx=0;exitDy=0;entryX=0.5;entryY=0;entryDx=0;entryDy=0;fontSize=18;fontColor=#000000;" edge="1" parent="dLAbs6o8Sz5CSkAgrKQP-1" source="dLAbs6o8Sz5CSkAgrKQP-4" target="dLAbs6o8Sz5CSkAgrKQP-7">
          <mxGeometry relative="1" as="geometry" />
        </mxCell>
        <mxCell id="dLAbs6o8Sz5CSkAgrKQP-4" value="" style="rounded=0;whiteSpace=wrap;html=1;fontSize=18;fontColor=#333333;fillColor=#f5f5f5;strokeColor=#666666;" vertex="1" parent="dLAbs6o8Sz5CSkAgrKQP-1">
          <mxGeometry x="495" y="210" width="270" height="280" as="geometry" />
        </mxCell>
        <mxCell id="dLAbs6o8Sz5CSkAgrKQP-2" value="Middleware" style="rounded=0;whiteSpace=wrap;html=1;fontSize=18;fontColor=#000000;" vertex="1" parent="dLAbs6o8Sz5CSkAgrKQP-1">
          <mxGeometry x="520" y="220" width="220" height="50" as="geometry" />
        </mxCell>
        <mxCell id="dLAbs6o8Sz5CSkAgrKQP-10" style="edgeStyle=orthogonalEdgeStyle;rounded=0;orthogonalLoop=1;jettySize=auto;html=1;exitX=0.5;exitY=1;exitDx=0;exitDy=0;entryX=0.5;entryY=0;entryDx=0;entryDy=0;fontSize=18;fontColor=#000000;" edge="1" parent="dLAbs6o8Sz5CSkAgrKQP-1" source="dLAbs6o8Sz5CSkAgrKQP-3" target="dLAbs6o8Sz5CSkAgrKQP-4">
          <mxGeometry relative="1" as="geometry" />
        </mxCell>
        <mxCell id="dLAbs6o8Sz5CSkAgrKQP-3" value="Valid Request" style="rounded=0;whiteSpace=wrap;html=1;fontSize=18;fillColor=#dae8fc;strokeColor=#6c8ebf;" vertex="1" parent="dLAbs6o8Sz5CSkAgrKQP-1">
          <mxGeometry x="555" y="140" width="150" height="40" as="geometry" />
        </mxCell>
        <mxCell id="dLAbs6o8Sz5CSkAgrKQP-5" value="" style="shape=curlyBracket;whiteSpace=wrap;html=1;rounded=1;fontSize=18;fontColor=#000000;rotation=-180;" vertex="1" parent="dLAbs6o8Sz5CSkAgrKQP-1">
          <mxGeometry x="770" y="210" width="30" height="280" as="geometry" />
        </mxCell>
        <mxCell id="dLAbs6o8Sz5CSkAgrKQP-6" value="Express App" style="text;html=1;strokeColor=none;fillColor=none;align=left;verticalAlign=middle;whiteSpace=wrap;rounded=0;fontSize=18;fontColor=#000000;" vertex="1" parent="dLAbs6o8Sz5CSkAgrKQP-1">
          <mxGeometry x="800" y="340" width="170" height="20" as="geometry" />
        </mxCell>
        <mxCell id="dLAbs6o8Sz5CSkAgrKQP-7" value="Response" style="rounded=0;whiteSpace=wrap;html=1;fontSize=18;fillColor=#dae8fc;strokeColor=#6c8ebf;" vertex="1" parent="dLAbs6o8Sz5CSkAgrKQP-1">
          <mxGeometry x="555" y="520" width="150" height="40" as="geometry" />
        </mxCell>
        <mxCell id="dLAbs6o8Sz5CSkAgrKQP-11" value="Middleware" style="rounded=0;whiteSpace=wrap;html=1;fontSize=18;fontColor=#000000;" vertex="1" parent="dLAbs6o8Sz5CSkAgrKQP-1">
          <mxGeometry x="520" y="270" width="220" height="50" as="geometry" />
        </mxCell>
        <mxCell id="dLAbs6o8Sz5CSkAgrKQP-14" style="edgeStyle=orthogonalEdgeStyle;rounded=0;orthogonalLoop=1;jettySize=auto;html=1;exitX=0.5;exitY=1;exitDx=0;exitDy=0;fontSize=18;fontColor=#000000;" edge="1" parent="dLAbs6o8Sz5CSkAgrKQP-1" source="dLAbs6o8Sz5CSkAgrKQP-12" target="dLAbs6o8Sz5CSkAgrKQP-13">
          <mxGeometry relative="1" as="geometry" />
        </mxCell>
        <mxCell id="dLAbs6o8Sz5CSkAgrKQP-12" value="Middleware" style="rounded=0;whiteSpace=wrap;html=1;fontSize=18;fontColor=#000000;" vertex="1" parent="dLAbs6o8Sz5CSkAgrKQP-1">
          <mxGeometry x="520" y="320" width="220" height="50" as="geometry" />
        </mxCell>
        <mxCell id="dLAbs6o8Sz5CSkAgrKQP-13" value="Request Handler" style="rounded=0;whiteSpace=wrap;html=1;fontSize=18;fontColor=#000000;" vertex="1" parent="dLAbs6o8Sz5CSkAgrKQP-1">
          <mxGeometry x="520" y="430" width="220" height="50" as="geometry" />
        </mxCell>
      </root>
    </mxGraphModel>
  </diagram>
  <diagram name="10 - err" id="mu1W6wAYkMT0V9MvQcug">
    <mxGraphModel dx="884" dy="435" grid="1" gridSize="10" guides="1" tooltips="1" connect="1" arrows="1" fold="1" page="1" pageScale="1" pageWidth="1920" pageHeight="1200" math="0" shadow="0">
      <root>
        <mxCell id="qjz8ICVDF8nVFW-MxIIK-0" />
        <mxCell id="qjz8ICVDF8nVFW-MxIIK-1" parent="qjz8ICVDF8nVFW-MxIIK-0" />
        <mxCell id="qjz8ICVDF8nVFW-MxIIK-3" value="" style="rounded=0;whiteSpace=wrap;html=1;fontSize=18;fontColor=#333333;fillColor=#f5f5f5;strokeColor=#666666;" vertex="1" parent="qjz8ICVDF8nVFW-MxIIK-1">
          <mxGeometry x="495" y="210" width="270" height="280" as="geometry" />
        </mxCell>
        <mxCell id="qjz8ICVDF8nVFW-MxIIK-4" value="Middleware" style="rounded=0;whiteSpace=wrap;html=1;fontSize=18;fontColor=#000000;" vertex="1" parent="qjz8ICVDF8nVFW-MxIIK-1">
          <mxGeometry x="520" y="220" width="220" height="50" as="geometry" />
        </mxCell>
        <mxCell id="qjz8ICVDF8nVFW-MxIIK-5" style="edgeStyle=orthogonalEdgeStyle;rounded=0;orthogonalLoop=1;jettySize=auto;html=1;exitX=0.5;exitY=1;exitDx=0;exitDy=0;entryX=0.5;entryY=0;entryDx=0;entryDy=0;fontSize=18;fontColor=#000000;" edge="1" parent="qjz8ICVDF8nVFW-MxIIK-1" source="qjz8ICVDF8nVFW-MxIIK-6" target="qjz8ICVDF8nVFW-MxIIK-3">
          <mxGeometry relative="1" as="geometry" />
        </mxCell>
        <mxCell id="qjz8ICVDF8nVFW-MxIIK-6" value="Request that will result in an error" style="rounded=0;whiteSpace=wrap;html=1;fontSize=18;fillColor=#f8cecc;strokeColor=#b85450;" vertex="1" parent="qjz8ICVDF8nVFW-MxIIK-1">
          <mxGeometry x="538.75" y="130" width="182.5" height="50" as="geometry" />
        </mxCell>
        <mxCell id="qjz8ICVDF8nVFW-MxIIK-7" value="" style="shape=curlyBracket;whiteSpace=wrap;html=1;rounded=1;fontSize=18;fontColor=#000000;rotation=-180;" vertex="1" parent="qjz8ICVDF8nVFW-MxIIK-1">
          <mxGeometry x="770" y="210" width="30" height="280" as="geometry" />
        </mxCell>
        <mxCell id="qjz8ICVDF8nVFW-MxIIK-8" value="Express App" style="text;html=1;strokeColor=none;fillColor=none;align=left;verticalAlign=middle;whiteSpace=wrap;rounded=0;fontSize=18;fontColor=#000000;" vertex="1" parent="qjz8ICVDF8nVFW-MxIIK-1">
          <mxGeometry x="800" y="340" width="170" height="20" as="geometry" />
        </mxCell>
        <mxCell id="qjz8ICVDF8nVFW-MxIIK-10" value="Middleware" style="rounded=0;whiteSpace=wrap;html=1;fontSize=18;fontColor=#000000;" vertex="1" parent="qjz8ICVDF8nVFW-MxIIK-1">
          <mxGeometry x="520" y="270" width="220" height="50" as="geometry" />
        </mxCell>
        <mxCell id="qjz8ICVDF8nVFW-MxIIK-11" style="edgeStyle=orthogonalEdgeStyle;rounded=0;orthogonalLoop=1;jettySize=auto;html=1;exitX=0.5;exitY=1;exitDx=0;exitDy=0;fontSize=18;fontColor=#000000;" edge="1" parent="qjz8ICVDF8nVFW-MxIIK-1" source="qjz8ICVDF8nVFW-MxIIK-12" target="qjz8ICVDF8nVFW-MxIIK-13">
          <mxGeometry relative="1" as="geometry" />
        </mxCell>
        <mxCell id="qjz8ICVDF8nVFW-MxIIK-12" value="Middleware" style="rounded=0;whiteSpace=wrap;html=1;fontSize=18;fontColor=#000000;" vertex="1" parent="qjz8ICVDF8nVFW-MxIIK-1">
          <mxGeometry x="520" y="320" width="220" height="50" as="geometry" />
        </mxCell>
        <mxCell id="qjz8ICVDF8nVFW-MxIIK-13" value="Request Handler" style="rounded=0;whiteSpace=wrap;html=1;fontSize=18;fontColor=#000000;" vertex="1" parent="qjz8ICVDF8nVFW-MxIIK-1">
          <mxGeometry x="520" y="400" width="220" height="80" as="geometry" />
        </mxCell>
        <mxCell id="QrlgRkL-8DSp4YuQDsVL-3" value="" style="group" vertex="1" connectable="0" parent="qjz8ICVDF8nVFW-MxIIK-1">
          <mxGeometry x="240" y="230" width="417.5" height="70" as="geometry" />
        </mxCell>
        <mxCell id="qjz8ICVDF8nVFW-MxIIK-9" value="Correctly structured error response" style="rounded=0;whiteSpace=wrap;html=1;fontSize=18;fillColor=#f8cecc;strokeColor=#b85450;" vertex="1" parent="QrlgRkL-8DSp4YuQDsVL-3">
          <mxGeometry width="205" height="70" as="geometry" />
        </mxCell>
        <mxCell id="QrlgRkL-8DSp4YuQDsVL-2" style="edgeStyle=orthogonalEdgeStyle;rounded=0;orthogonalLoop=1;jettySize=auto;html=1;exitX=0;exitY=0.5;exitDx=0;exitDy=0;fontSize=29;fontColor=#000000;" edge="1" parent="QrlgRkL-8DSp4YuQDsVL-3" source="QrlgRkL-8DSp4YuQDsVL-0" target="qjz8ICVDF8nVFW-MxIIK-9">
          <mxGeometry relative="1" as="geometry" />
        </mxCell>
        <mxCell id="QrlgRkL-8DSp4YuQDsVL-0" value="X" style="text;html=1;strokeColor=none;fillColor=none;align=center;verticalAlign=middle;whiteSpace=wrap;rounded=0;fontSize=29;fontColor=#FF0000;fontStyle=1" vertex="1" parent="QrlgRkL-8DSp4YuQDsVL-3">
          <mxGeometry x="362.5" y="25" width="55" height="20" as="geometry" />
        </mxCell>
      </root>
    </mxGraphModel>
  </diagram>
  <diagram id="6cjUwZnAreRZeKl64Rub" name="14 - err">
    <mxGraphModel dx="601" dy="296" grid="1" gridSize="10" guides="1" tooltips="1" connect="1" arrows="1" fold="1" page="1" pageScale="1" pageWidth="1920" pageHeight="1200" math="0" shadow="0">
      <root>
        <mxCell id="2gRgzdV8rEF1LZ7UKJVG-0" />
        <mxCell id="2gRgzdV8rEF1LZ7UKJVG-1" parent="2gRgzdV8rEF1LZ7UKJVG-0" />
        <mxCell id="cDvfWL0oXhX3NDD9i-i8-0" value="We must have a consistently structured response from &lt;i&gt;all&lt;/i&gt; servers, no matter what went wrong" style="rounded=0;whiteSpace=wrap;html=1;fontSize=15;align=center;fillColor=#dae8fc;strokeColor=#6c8ebf;" vertex="1" parent="2gRgzdV8rEF1LZ7UKJVG-1">
          <mxGeometry x="680" y="240" width="450" height="60" as="geometry" />
        </mxCell>
        <mxCell id="cDvfWL0oXhX3NDD9i-i8-1" value="Difficulty in Error Handling" style="text;html=1;strokeColor=none;fillColor=none;align=center;verticalAlign=middle;whiteSpace=wrap;rounded=0;fontSize=23;fontColor=#000000;fontStyle=1" vertex="1" parent="2gRgzdV8rEF1LZ7UKJVG-1">
          <mxGeometry x="730" y="210" width="320" height="20" as="geometry" />
        </mxCell>
        <mxCell id="cDvfWL0oXhX3NDD9i-i8-2" value="1" style="rounded=0;whiteSpace=wrap;html=1;fontSize=23;fontColor=#000000;align=center;" vertex="1" parent="2gRgzdV8rEF1LZ7UKJVG-1">
          <mxGeometry x="620" y="240" width="60" height="60" as="geometry" />
        </mxCell>
        <mxCell id="cDvfWL0oXhX3NDD9i-i8-3" value="A billion things can go wrong, not just validation of inputs to a request handler.&amp;nbsp; Each of these need to be handled consistently" style="rounded=0;whiteSpace=wrap;html=1;fontSize=15;align=center;fillColor=#dae8fc;strokeColor=#6c8ebf;" vertex="1" parent="2gRgzdV8rEF1LZ7UKJVG-1">
          <mxGeometry x="680" y="310" width="450" height="60" as="geometry" />
        </mxCell>
        <mxCell id="cDvfWL0oXhX3NDD9i-i8-4" value="2" style="rounded=0;whiteSpace=wrap;html=1;fontSize=23;fontColor=#000000;align=center;" vertex="1" parent="2gRgzdV8rEF1LZ7UKJVG-1">
          <mxGeometry x="620" y="310" width="60" height="60" as="geometry" />
        </mxCell>
      </root>
    </mxGraphModel>
  </diagram>
  <diagram name="15 - solve" id="Cl7Vg9x0mmKmvmYWFLSL">
    <mxGraphModel dx="601" dy="296" grid="1" gridSize="10" guides="1" tooltips="1" connect="1" arrows="1" fold="1" page="1" pageScale="1" pageWidth="1920" pageHeight="1200" math="0" shadow="0">
      <root>
        <mxCell id="0qEShb-rQfmL9kQa7nlj-0" />
        <mxCell id="0qEShb-rQfmL9kQa7nlj-1" parent="0qEShb-rQfmL9kQa7nlj-0" />
        <mxCell id="0qEShb-rQfmL9kQa7nlj-8" style="edgeStyle=orthogonalEdgeStyle;rounded=0;orthogonalLoop=1;jettySize=auto;html=1;exitX=1;exitY=0.5;exitDx=0;exitDy=0;fontSize=23;fontColor=#000000;" edge="1" parent="0qEShb-rQfmL9kQa7nlj-1" source="0qEShb-rQfmL9kQa7nlj-2" target="0qEShb-rQfmL9kQa7nlj-7">
          <mxGeometry relative="1" as="geometry" />
        </mxCell>
        <mxCell id="0qEShb-rQfmL9kQa7nlj-2" value="We must have a consistently structured response from &lt;i&gt;all&lt;/i&gt; servers, no matter what went wrong" style="rounded=0;whiteSpace=wrap;html=1;fontSize=15;align=center;fillColor=#dae8fc;strokeColor=#6c8ebf;" vertex="1" parent="0qEShb-rQfmL9kQa7nlj-1">
          <mxGeometry x="680" y="240" width="450" height="60" as="geometry" />
        </mxCell>
        <mxCell id="0qEShb-rQfmL9kQa7nlj-3" value="Difficulty in Error Handling" style="text;html=1;strokeColor=none;fillColor=none;align=center;verticalAlign=middle;whiteSpace=wrap;rounded=0;fontSize=23;fontColor=#000000;fontStyle=1" vertex="1" parent="0qEShb-rQfmL9kQa7nlj-1">
          <mxGeometry x="730" y="210" width="320" height="20" as="geometry" />
        </mxCell>
        <mxCell id="0qEShb-rQfmL9kQa7nlj-4" value="1" style="rounded=0;whiteSpace=wrap;html=1;fontSize=23;fontColor=#000000;align=center;" vertex="1" parent="0qEShb-rQfmL9kQa7nlj-1">
          <mxGeometry x="620" y="240" width="60" height="60" as="geometry" />
        </mxCell>
        <mxCell id="0qEShb-rQfmL9kQa7nlj-5" value="A billion things can go wrong, not just validation of inputs to a request handler.&amp;nbsp; Each of these need to be handled consistently" style="rounded=0;whiteSpace=wrap;html=1;fontSize=15;align=center;fillColor=#dae8fc;strokeColor=#6c8ebf;" vertex="1" parent="0qEShb-rQfmL9kQa7nlj-1">
          <mxGeometry x="680" y="310" width="450" height="60" as="geometry" />
        </mxCell>
        <mxCell id="0qEShb-rQfmL9kQa7nlj-6" value="2" style="rounded=0;whiteSpace=wrap;html=1;fontSize=23;fontColor=#000000;align=center;" vertex="1" parent="0qEShb-rQfmL9kQa7nlj-1">
          <mxGeometry x="620" y="310" width="60" height="60" as="geometry" />
        </mxCell>
        <mxCell id="0qEShb-rQfmL9kQa7nlj-7" value="Write an error handling middleware to process errors, give them a consistent structure, and send back to the browser" style="rounded=0;whiteSpace=wrap;html=1;fontSize=15;align=center;fillColor=#dae8fc;strokeColor=#6c8ebf;" vertex="1" parent="0qEShb-rQfmL9kQa7nlj-1">
          <mxGeometry x="1160" y="240" width="350" height="60" as="geometry" />
        </mxCell>
        <mxCell id="0qEShb-rQfmL9kQa7nlj-9" style="edgeStyle=orthogonalEdgeStyle;rounded=0;orthogonalLoop=1;jettySize=auto;html=1;exitX=1;exitY=0.5;exitDx=0;exitDy=0;fontSize=23;fontColor=#000000;" edge="1" parent="0qEShb-rQfmL9kQa7nlj-1" target="0qEShb-rQfmL9kQa7nlj-10">
          <mxGeometry relative="1" as="geometry">
            <mxPoint x="1130" y="340" as="sourcePoint" />
          </mxGeometry>
        </mxCell>
        <mxCell id="0qEShb-rQfmL9kQa7nlj-10" value="Make sure we capture all possible errors using Express&#39;s error handling mechanism (call the &#39;next&#39; function!)" style="rounded=0;whiteSpace=wrap;html=1;fontSize=15;align=center;fillColor=#dae8fc;strokeColor=#6c8ebf;" vertex="1" parent="0qEShb-rQfmL9kQa7nlj-1">
          <mxGeometry x="1160" y="310" width="350" height="60" as="geometry" />
        </mxCell>
      </root>
    </mxGraphModel>
  </diagram>
  <diagram id="zUn3r9I5Cwu2o2GGajmx" name="07 - ee">
    <mxGraphModel dx="715" dy="352" grid="1" gridSize="10" guides="1" tooltips="1" connect="1" arrows="1" fold="1" page="1" pageScale="1" pageWidth="1920" pageHeight="1200" math="0" shadow="0">
      <root>
        <mxCell id="oVvs_KUR0T4JfFlB8uQe-0" />
        <mxCell id="oVvs_KUR0T4JfFlB8uQe-1" parent="oVvs_KUR0T4JfFlB8uQe-0" />
        <mxCell id="EpvxHE3ArACn50wW2pN3-1" style="edgeStyle=orthogonalEdgeStyle;rounded=0;orthogonalLoop=1;jettySize=auto;html=1;exitX=0.5;exitY=1;exitDx=0;exitDy=0;fontSize=25;" edge="1" parent="oVvs_KUR0T4JfFlB8uQe-1" source="WOFWxEUXd8a4jIgGIt7B-0" target="EpvxHE3ArACn50wW2pN3-0">
          <mxGeometry relative="1" as="geometry" />
        </mxCell>
        <mxCell id="WOFWxEUXd8a4jIgGIt7B-0" value="We need to have an easy-to-use system for handling &lt;i&gt;any kind of error &lt;/i&gt;and sending an identically-structured response" style="rounded=0;whiteSpace=wrap;html=1;fontSize=25;fillColor=#dae8fc;strokeColor=#6c8ebf;" vertex="1" parent="oVvs_KUR0T4JfFlB8uQe-1">
          <mxGeometry x="400" y="260" width="560" height="110" as="geometry" />
        </mxCell>
        <mxCell id="EpvxHE3ArACn50wW2pN3-0" value="Unfortunately, Express&#39;s default error handling system makes this kind of hard, mostly because of async-await" style="rounded=0;whiteSpace=wrap;html=1;fontSize=25;fillColor=#dae8fc;strokeColor=#6c8ebf;" vertex="1" parent="oVvs_KUR0T4JfFlB8uQe-1">
          <mxGeometry x="400" y="430" width="560" height="110" as="geometry" />
        </mxCell>
      </root>
    </mxGraphModel>
  </diagram>
  <diagram name="11 - err mw" id="LAc1NW3rKs-llJpi3TkY">
    <mxGraphModel dx="751" dy="370" grid="1" gridSize="10" guides="1" tooltips="1" connect="1" arrows="1" fold="1" page="1" pageScale="1" pageWidth="1920" pageHeight="1200" math="0" shadow="0">
      <root>
        <mxCell id="U98Dx9CZUy9OOtTkSFIL-0" />
        <mxCell id="U98Dx9CZUy9OOtTkSFIL-1" parent="U98Dx9CZUy9OOtTkSFIL-0" />
        <mxCell id="U98Dx9CZUy9OOtTkSFIL-2" value="" style="rounded=0;whiteSpace=wrap;html=1;fontSize=18;fontColor=#333333;fillColor=#f5f5f5;strokeColor=#666666;" vertex="1" parent="U98Dx9CZUy9OOtTkSFIL-1">
          <mxGeometry x="495" y="210" width="270" height="280" as="geometry" />
        </mxCell>
        <mxCell id="U98Dx9CZUy9OOtTkSFIL-3" value="Error Handling Middleware" style="rounded=0;whiteSpace=wrap;html=1;fontSize=18;fontColor=#000000;" vertex="1" parent="U98Dx9CZUy9OOtTkSFIL-1">
          <mxGeometry x="520" y="220" width="220" height="50" as="geometry" />
        </mxCell>
        <mxCell id="U98Dx9CZUy9OOtTkSFIL-4" style="edgeStyle=orthogonalEdgeStyle;rounded=0;orthogonalLoop=1;jettySize=auto;html=1;exitX=0.5;exitY=1;exitDx=0;exitDy=0;entryX=0.5;entryY=0;entryDx=0;entryDy=0;fontSize=18;fontColor=#000000;" edge="1" parent="U98Dx9CZUy9OOtTkSFIL-1" source="U98Dx9CZUy9OOtTkSFIL-5" target="U98Dx9CZUy9OOtTkSFIL-2">
          <mxGeometry relative="1" as="geometry" />
        </mxCell>
        <mxCell id="U98Dx9CZUy9OOtTkSFIL-5" value="Request that will result in an error" style="rounded=0;whiteSpace=wrap;html=1;fontSize=18;fillColor=#f8cecc;strokeColor=#b85450;" vertex="1" parent="U98Dx9CZUy9OOtTkSFIL-1">
          <mxGeometry x="538.75" y="130" width="182.5" height="50" as="geometry" />
        </mxCell>
        <mxCell id="U98Dx9CZUy9OOtTkSFIL-6" value="" style="shape=curlyBracket;whiteSpace=wrap;html=1;rounded=1;fontSize=18;fontColor=#000000;rotation=-180;" vertex="1" parent="U98Dx9CZUy9OOtTkSFIL-1">
          <mxGeometry x="770" y="210" width="30" height="280" as="geometry" />
        </mxCell>
        <mxCell id="U98Dx9CZUy9OOtTkSFIL-7" value="Express App" style="text;html=1;strokeColor=none;fillColor=none;align=left;verticalAlign=middle;whiteSpace=wrap;rounded=0;fontSize=18;fontColor=#000000;" vertex="1" parent="U98Dx9CZUy9OOtTkSFIL-1">
          <mxGeometry x="800" y="340" width="170" height="20" as="geometry" />
        </mxCell>
        <mxCell id="U98Dx9CZUy9OOtTkSFIL-8" value="Middleware" style="rounded=0;whiteSpace=wrap;html=1;fontSize=18;fontColor=#000000;" vertex="1" parent="U98Dx9CZUy9OOtTkSFIL-1">
          <mxGeometry x="520" y="270" width="220" height="50" as="geometry" />
        </mxCell>
        <mxCell id="U98Dx9CZUy9OOtTkSFIL-9" style="edgeStyle=orthogonalEdgeStyle;rounded=0;orthogonalLoop=1;jettySize=auto;html=1;exitX=0.5;exitY=1;exitDx=0;exitDy=0;fontSize=18;fontColor=#000000;" edge="1" parent="U98Dx9CZUy9OOtTkSFIL-1" source="U98Dx9CZUy9OOtTkSFIL-10" target="U98Dx9CZUy9OOtTkSFIL-11">
          <mxGeometry relative="1" as="geometry" />
        </mxCell>
        <mxCell id="U98Dx9CZUy9OOtTkSFIL-10" value="Middleware" style="rounded=0;whiteSpace=wrap;html=1;fontSize=18;fontColor=#000000;" vertex="1" parent="U98Dx9CZUy9OOtTkSFIL-1">
          <mxGeometry x="520" y="320" width="220" height="50" as="geometry" />
        </mxCell>
        <mxCell id="U98Dx9CZUy9OOtTkSFIL-11" value="Request Handler" style="rounded=0;whiteSpace=wrap;html=1;fontSize=18;fontColor=#000000;" vertex="1" parent="U98Dx9CZUy9OOtTkSFIL-1">
          <mxGeometry x="520" y="400" width="220" height="80" as="geometry" />
        </mxCell>
        <mxCell id="U98Dx9CZUy9OOtTkSFIL-12" value="" style="group" vertex="1" connectable="0" parent="U98Dx9CZUy9OOtTkSFIL-1">
          <mxGeometry x="240" y="425" width="417.5" height="70" as="geometry" />
        </mxCell>
        <mxCell id="U98Dx9CZUy9OOtTkSFIL-13" value="Correctly structured error response" style="rounded=0;whiteSpace=wrap;html=1;fontSize=18;fillColor=#f8cecc;strokeColor=#b85450;" vertex="1" parent="U98Dx9CZUy9OOtTkSFIL-12">
          <mxGeometry width="205" height="70" as="geometry" />
        </mxCell>
        <mxCell id="U98Dx9CZUy9OOtTkSFIL-14" style="edgeStyle=orthogonalEdgeStyle;rounded=0;orthogonalLoop=1;jettySize=auto;html=1;exitX=0;exitY=0.5;exitDx=0;exitDy=0;fontSize=29;fontColor=#000000;" edge="1" parent="U98Dx9CZUy9OOtTkSFIL-12" source="U98Dx9CZUy9OOtTkSFIL-15" target="U98Dx9CZUy9OOtTkSFIL-13">
          <mxGeometry relative="1" as="geometry" />
        </mxCell>
        <mxCell id="U98Dx9CZUy9OOtTkSFIL-15" value="X" style="text;html=1;strokeColor=none;fillColor=none;align=center;verticalAlign=middle;whiteSpace=wrap;rounded=0;fontSize=29;fontColor=#FF0000;fontStyle=1" vertex="1" parent="U98Dx9CZUy9OOtTkSFIL-12">
          <mxGeometry x="362.5" y="25" width="55" height="20" as="geometry" />
        </mxCell>
      </root>
    </mxGraphModel>
  </diagram>
  <diagram id="9RsEpoFzTq59sgSrUI6B" name="12 - steps">
    <mxGraphModel dx="601" dy="296" grid="1" gridSize="10" guides="1" tooltips="1" connect="1" arrows="1" fold="1" page="1" pageScale="1" pageWidth="1920" pageHeight="1200" math="0" shadow="0">
      <root>
        <mxCell id="KW6cLKmbif0Z8XQ_49ng-0" />
        <mxCell id="KW6cLKmbif0Z8XQ_49ng-1" parent="KW6cLKmbif0Z8XQ_49ng-0" />
        <mxCell id="4xn4rJMdnoHaNM8YS9Ev-0" value="Install a little library that allows Express to catch errors in async code" style="rounded=0;whiteSpace=wrap;html=1;fontSize=15;fontColor=#000000;" vertex="1" parent="KW6cLKmbif0Z8XQ_49ng-1">
          <mxGeometry x="485" y="220" width="500" height="50" as="geometry" />
        </mxCell>
        <mxCell id="4xn4rJMdnoHaNM8YS9Ev-1" value="Error Handling Strategy" style="text;html=1;strokeColor=none;fillColor=none;align=center;verticalAlign=middle;whiteSpace=wrap;rounded=0;fontSize=21;fontColor=#000000;fontStyle=1" vertex="1" parent="KW6cLKmbif0Z8XQ_49ng-1">
          <mxGeometry x="540" y="190" width="390" height="20" as="geometry" />
        </mxCell>
        <mxCell id="mdH5uWmydi_vEC07h4XZ-0" style="edgeStyle=orthogonalEdgeStyle;rounded=0;orthogonalLoop=1;jettySize=auto;html=1;exitX=0;exitY=0.25;exitDx=0;exitDy=0;entryX=0;entryY=0.5;entryDx=0;entryDy=0;fontSize=15;fontColor=#000000;" edge="1" parent="KW6cLKmbif0Z8XQ_49ng-1" source="4xn4rJMdnoHaNM8YS9Ev-2" target="4xn4rJMdnoHaNM8YS9Ev-0">
          <mxGeometry relative="1" as="geometry" />
        </mxCell>
        <mxCell id="4xn4rJMdnoHaNM8YS9Ev-2" value="Create a middleware that will interpret errors of any type, then turn the error into an identically-structured response" style="rounded=0;whiteSpace=wrap;html=1;fontSize=15;fontColor=#000000;" vertex="1" parent="KW6cLKmbif0Z8XQ_49ng-1">
          <mxGeometry x="485" y="280" width="500" height="50" as="geometry" />
        </mxCell>
        <mxCell id="4xn4rJMdnoHaNM8YS9Ev-3" value="Create some errors to handle many different kinds of things going wrong in our app" style="rounded=0;whiteSpace=wrap;html=1;fontSize=15;fontColor=#000000;" vertex="1" parent="KW6cLKmbif0Z8XQ_49ng-1">
          <mxGeometry x="485" y="340" width="500" height="50" as="geometry" />
        </mxCell>
      </root>
    </mxGraphModel>
  </diagram>
  <diagram id="6Lcuuj4X736c1GDb-m37" name="13 - aside">
    <mxGraphModel dx="715" dy="352" grid="1" gridSize="10" guides="1" tooltips="1" connect="1" arrows="1" fold="1" page="1" pageScale="1" pageWidth="1920" pageHeight="1200" math="0" shadow="0">
      <root>
        <mxCell id="hUEY2wOlaErhGofcnj1c-0" />
        <mxCell id="hUEY2wOlaErhGofcnj1c-1" parent="hUEY2wOlaErhGofcnj1c-0" />
        <mxCell id="NgLZABnQFm3DiyONMe-1-2" style="edgeStyle=orthogonalEdgeStyle;rounded=0;orthogonalLoop=1;jettySize=auto;html=1;exitX=0.5;exitY=1;exitDx=0;exitDy=0;fontSize=15;fontColor=#000000;" edge="1" parent="hUEY2wOlaErhGofcnj1c-1" source="NgLZABnQFm3DiyONMe-1-0" target="NgLZABnQFm3DiyONMe-1-1">
          <mxGeometry relative="1" as="geometry" />
        </mxCell>
        <mxCell id="NgLZABnQFm3DiyONMe-1-0" value="Confused with where I&#39;m going with all this error handling stuff?" style="rounded=0;whiteSpace=wrap;html=1;fontSize=25;fillColor=#dae8fc;strokeColor=#6c8ebf;" vertex="1" parent="hUEY2wOlaErhGofcnj1c-1">
          <mxGeometry x="400" y="260" width="560" height="110" as="geometry" />
        </mxCell>
        <mxCell id="NgLZABnQFm3DiyONMe-1-1" value="Please give me a bit of patience, at the end of this you are going to have one of the best error handling systems in the world of express" style="rounded=0;whiteSpace=wrap;html=1;fontSize=25;fillColor=#dae8fc;strokeColor=#6c8ebf;" vertex="1" parent="hUEY2wOlaErhGofcnj1c-1">
          <mxGeometry x="400" y="430" width="560" height="110" as="geometry" />
        </mxCell>
      </root>
    </mxGraphModel>
  </diagram>
  <diagram id="tLMlEkViiaC2vGRTi-Fz" name="16 - err">
    <mxGraphModel dx="910" dy="448" grid="1" gridSize="10" guides="1" tooltips="1" connect="1" arrows="1" fold="1" page="1" pageScale="1" pageWidth="1920" pageHeight="1200" math="0" shadow="0">
      <root>
        <mxCell id="1CTpqj0xhS1AwQVcfzc1-0" />
        <mxCell id="1CTpqj0xhS1AwQVcfzc1-1" parent="1CTpqj0xhS1AwQVcfzc1-0" />
        <mxCell id="H8O5_px0NxPOk7Xn18Pt-0" value="" style="rounded=0;whiteSpace=wrap;html=1;fontSize=18;fontColor=#333333;fillColor=#f5f5f5;strokeColor=#666666;" vertex="1" parent="1CTpqj0xhS1AwQVcfzc1-1">
          <mxGeometry x="725" y="220" width="270" height="280" as="geometry" />
        </mxCell>
        <mxCell id="H8O5_px0NxPOk7Xn18Pt-2" style="edgeStyle=orthogonalEdgeStyle;rounded=0;orthogonalLoop=1;jettySize=auto;html=1;exitX=0.5;exitY=1;exitDx=0;exitDy=0;entryX=0.5;entryY=0;entryDx=0;entryDy=0;fontSize=18;fontColor=#000000;" edge="1" parent="1CTpqj0xhS1AwQVcfzc1-1" source="H8O5_px0NxPOk7Xn18Pt-3" target="H8O5_px0NxPOk7Xn18Pt-0">
          <mxGeometry relative="1" as="geometry" />
        </mxCell>
        <mxCell id="H8O5_px0NxPOk7Xn18Pt-3" value="Request that will result in an error" style="rounded=0;whiteSpace=wrap;html=1;fontSize=18;fillColor=#fff2cc;strokeColor=#d6b656;" vertex="1" parent="1CTpqj0xhS1AwQVcfzc1-1">
          <mxGeometry x="768.75" y="140" width="182.5" height="50" as="geometry" />
        </mxCell>
        <mxCell id="H8O5_px0NxPOk7Xn18Pt-15" style="edgeStyle=orthogonalEdgeStyle;rounded=0;orthogonalLoop=1;jettySize=auto;html=1;exitX=0.5;exitY=1;exitDx=0;exitDy=0;fontSize=23;fontColor=#000000;" edge="1" parent="1CTpqj0xhS1AwQVcfzc1-1" source="H8O5_px0NxPOk7Xn18Pt-9" target="H8O5_px0NxPOk7Xn18Pt-14">
          <mxGeometry relative="1" as="geometry" />
        </mxCell>
        <mxCell id="H8O5_px0NxPOk7Xn18Pt-9" value="Request Handler" style="rounded=0;whiteSpace=wrap;html=1;fontSize=18;fontColor=#000000;" vertex="1" parent="1CTpqj0xhS1AwQVcfzc1-1">
          <mxGeometry x="750" y="240" width="220" height="80" as="geometry" />
        </mxCell>
        <mxCell id="H8O5_px0NxPOk7Xn18Pt-11" value="Correctly structured error response" style="rounded=0;whiteSpace=wrap;html=1;fontSize=18;fillColor=#fff2cc;strokeColor=#d6b656;" vertex="1" parent="1CTpqj0xhS1AwQVcfzc1-1">
          <mxGeometry x="757.5" y="520" width="205" height="70" as="geometry" />
        </mxCell>
        <mxCell id="H8O5_px0NxPOk7Xn18Pt-16" style="edgeStyle=orthogonalEdgeStyle;rounded=0;orthogonalLoop=1;jettySize=auto;html=1;exitX=0.5;exitY=1;exitDx=0;exitDy=0;fontSize=23;fontColor=#000000;" edge="1" parent="1CTpqj0xhS1AwQVcfzc1-1" source="H8O5_px0NxPOk7Xn18Pt-14" target="H8O5_px0NxPOk7Xn18Pt-11">
          <mxGeometry relative="1" as="geometry" />
        </mxCell>
        <mxCell id="H8O5_px0NxPOk7Xn18Pt-14" value="Error Handling Middleware" style="rounded=0;whiteSpace=wrap;html=1;fontSize=18;fontColor=#000000;" vertex="1" parent="1CTpqj0xhS1AwQVcfzc1-1">
          <mxGeometry x="750" y="400" width="220" height="80" as="geometry" />
        </mxCell>
        <mxCell id="pLF6HXQXFwffxk3s34A0-0" value="X" style="text;html=1;strokeColor=none;fillColor=none;align=center;verticalAlign=middle;whiteSpace=wrap;rounded=0;fontSize=29;fontColor=#FF0000;fontStyle=1" vertex="1" parent="1CTpqj0xhS1AwQVcfzc1-1">
          <mxGeometry x="832.5" y="300" width="55" height="20" as="geometry" />
        </mxCell>
        <mxCell id="pLF6HXQXFwffxk3s34A0-1" value="Error Object" style="rounded=0;whiteSpace=wrap;html=1;fontSize=23;align=center;fillColor=#f8cecc;strokeColor=#b85450;" vertex="1" parent="1CTpqj0xhS1AwQVcfzc1-1">
          <mxGeometry x="860" y="340" width="170" height="30" as="geometry" />
        </mxCell>
      </root>
    </mxGraphModel>
  </diagram>
  <diagram id="cYU1IZCJnhgAtPi50_Am" name="17 - err">
    <mxGraphModel dx="910" dy="448" grid="1" gridSize="10" guides="1" tooltips="1" connect="1" arrows="1" fold="1" page="1" pageScale="1" pageWidth="1920" pageHeight="1200" math="0" shadow="0">
      <root>
        <mxCell id="SSAxtOBh461QsmT7kKg7-0" />
        <mxCell id="SSAxtOBh461QsmT7kKg7-1" parent="SSAxtOBh461QsmT7kKg7-0" />
        <mxCell id="59SO2c7Npe2F6ojAnWSL-0" value="" style="rounded=0;whiteSpace=wrap;html=1;fontSize=18;fontColor=#333333;fillColor=#f5f5f5;strokeColor=#666666;" vertex="1" parent="SSAxtOBh461QsmT7kKg7-1">
          <mxGeometry x="725" y="220" width="270" height="280" as="geometry" />
        </mxCell>
        <mxCell id="59SO2c7Npe2F6ojAnWSL-1" style="edgeStyle=orthogonalEdgeStyle;rounded=0;orthogonalLoop=1;jettySize=auto;html=1;exitX=0.5;exitY=1;exitDx=0;exitDy=0;entryX=0.5;entryY=0;entryDx=0;entryDy=0;fontSize=18;fontColor=#000000;" edge="1" parent="SSAxtOBh461QsmT7kKg7-1" source="59SO2c7Npe2F6ojAnWSL-2" target="59SO2c7Npe2F6ojAnWSL-0">
          <mxGeometry relative="1" as="geometry" />
        </mxCell>
        <mxCell id="59SO2c7Npe2F6ojAnWSL-2" value="Request that will result in an error" style="rounded=0;whiteSpace=wrap;html=1;fontSize=18;fillColor=#fff2cc;strokeColor=#d6b656;" vertex="1" parent="SSAxtOBh461QsmT7kKg7-1">
          <mxGeometry x="768.75" y="140" width="182.5" height="50" as="geometry" />
        </mxCell>
        <mxCell id="4c_RlxCxCpw85ozP1dT0-1" style="edgeStyle=orthogonalEdgeStyle;rounded=0;orthogonalLoop=1;jettySize=auto;html=1;exitX=0.25;exitY=1;exitDx=0;exitDy=0;entryX=0.25;entryY=0;entryDx=0;entryDy=0;fontSize=23;fontColor=#000000;" edge="1" parent="SSAxtOBh461QsmT7kKg7-1" source="59SO2c7Npe2F6ojAnWSL-4" target="59SO2c7Npe2F6ojAnWSL-7">
          <mxGeometry relative="1" as="geometry" />
        </mxCell>
        <mxCell id="59SO2c7Npe2F6ojAnWSL-4" value="Request Handler" style="rounded=0;whiteSpace=wrap;html=1;fontSize=18;fontColor=#000000;" vertex="1" parent="SSAxtOBh461QsmT7kKg7-1">
          <mxGeometry x="750" y="240" width="220" height="40" as="geometry" />
        </mxCell>
        <mxCell id="59SO2c7Npe2F6ojAnWSL-5" value="Correctly structured error response" style="rounded=0;whiteSpace=wrap;html=1;fontSize=18;fillColor=#fff2cc;strokeColor=#d6b656;" vertex="1" parent="SSAxtOBh461QsmT7kKg7-1">
          <mxGeometry x="757.5" y="520" width="205" height="70" as="geometry" />
        </mxCell>
        <mxCell id="59SO2c7Npe2F6ojAnWSL-6" style="edgeStyle=orthogonalEdgeStyle;rounded=0;orthogonalLoop=1;jettySize=auto;html=1;exitX=0.5;exitY=1;exitDx=0;exitDy=0;fontSize=23;fontColor=#000000;" edge="1" parent="SSAxtOBh461QsmT7kKg7-1" source="59SO2c7Npe2F6ojAnWSL-7" target="59SO2c7Npe2F6ojAnWSL-5">
          <mxGeometry relative="1" as="geometry" />
        </mxCell>
        <mxCell id="59SO2c7Npe2F6ojAnWSL-7" value="Error Handling Middleware" style="rounded=0;whiteSpace=wrap;html=1;fontSize=18;fontColor=#000000;" vertex="1" parent="SSAxtOBh461QsmT7kKg7-1">
          <mxGeometry x="750" y="450" width="220" height="30" as="geometry" />
        </mxCell>
        <mxCell id="59SO2c7Npe2F6ojAnWSL-9" value="Error Object" style="rounded=0;whiteSpace=wrap;html=1;fontSize=18;align=center;fillColor=#f8cecc;strokeColor=#b85450;fontStyle=1" vertex="1" parent="SSAxtOBh461QsmT7kKg7-1">
          <mxGeometry x="805" y="293" width="170" height="30" as="geometry" />
        </mxCell>
        <mxCell id="4c_RlxCxCpw85ozP1dT0-0" value="[ { msg: &#39;Bad Email&#39;, param: &#39;email&#39; } ]&amp;nbsp;" style="rounded=0;whiteSpace=wrap;html=1;fontSize=15;fillColor=#f8cecc;strokeColor=#b85450;" vertex="1" parent="SSAxtOBh461QsmT7kKg7-1">
          <mxGeometry x="807.5" y="323" width="165" height="67" as="geometry" />
        </mxCell>
        <mxCell id="4c_RlxCxCpw85ozP1dT0-2" value="" style="shape=curlyBracket;whiteSpace=wrap;html=1;rounded=1;fontSize=18;fontColor=#000000;align=center;rotation=-180;" vertex="1" parent="SSAxtOBh461QsmT7kKg7-1">
          <mxGeometry x="980" y="324" width="50" height="64" as="geometry" />
        </mxCell>
        <mxCell id="4c_RlxCxCpw85ozP1dT0-3" value="Need to somehow attach custom error message to the error" style="text;html=1;strokeColor=none;fillColor=none;align=left;verticalAlign=middle;whiteSpace=wrap;rounded=0;fontSize=18;fontColor=#000000;" vertex="1" parent="SSAxtOBh461QsmT7kKg7-1">
          <mxGeometry x="1030" y="334.5" width="240" height="43" as="geometry" />
        </mxCell>
      </root>
    </mxGraphModel>
  </diagram>
  <diagram id="71q7p6V2s1saMESjTt4F" name="19 - issue">
    <mxGraphModel dx="601" dy="296" grid="1" gridSize="10" guides="1" tooltips="1" connect="1" arrows="1" fold="1" page="1" pageScale="1" pageWidth="1920" pageHeight="1200" math="0" shadow="0">
      <root>
        <mxCell id="ls_2VCDgyfVeGhZ0YgNr-0" />
        <mxCell id="ls_2VCDgyfVeGhZ0YgNr-1" parent="ls_2VCDgyfVeGhZ0YgNr-0" />
        <mxCell id="ls_2VCDgyfVeGhZ0YgNr-2" value="We want an object like an &#39;Error&#39;, but we want to add in some more custom properties to it" style="rounded=0;whiteSpace=wrap;html=1;fontSize=18;align=center;fillColor=#dae8fc;strokeColor=#6c8ebf;" vertex="1" parent="ls_2VCDgyfVeGhZ0YgNr-1">
          <mxGeometry x="600" y="220" width="460" height="80" as="geometry" />
        </mxCell>
        <mxCell id="ls_2VCDgyfVeGhZ0YgNr-3" value="&lt;i&gt;Usually a sign you want to subclass something!&lt;/i&gt;" style="text;html=1;strokeColor=none;fillColor=none;align=center;verticalAlign=middle;whiteSpace=wrap;rounded=0;fontSize=18;fontColor=#000000;" vertex="1" parent="ls_2VCDgyfVeGhZ0YgNr-1">
          <mxGeometry x="715" y="300" width="230" height="50" as="geometry" />
        </mxCell>
      </root>
    </mxGraphModel>
  </diagram>
  <diagram id="jCFlEIlYpX5v-aXjBg62" name="18 - err">
    <mxGraphModel dx="601" dy="296" grid="1" gridSize="10" guides="1" tooltips="1" connect="1" arrows="1" fold="1" page="1" pageScale="1" pageWidth="1920" pageHeight="1200" math="0" shadow="0">
      <root>
        <mxCell id="_mQOsp6kqssbeXEEPnd9-0" />
        <mxCell id="_mQOsp6kqssbeXEEPnd9-1" parent="_mQOsp6kqssbeXEEPnd9-0" />
        <mxCell id="_mQOsp6kqssbeXEEPnd9-4" value="RequestValidationError" style="rounded=0;whiteSpace=wrap;html=1;fontSize=18;align=center;fillColor=#dae8fc;strokeColor=#6c8ebf;fontStyle=1" vertex="1" parent="_mQOsp6kqssbeXEEPnd9-1">
          <mxGeometry x="550" y="310" width="240" height="60" as="geometry" />
        </mxCell>
        <mxCell id="u2KMksYx86Afc_CrJR-n-1" style="edgeStyle=orthogonalEdgeStyle;rounded=0;orthogonalLoop=1;jettySize=auto;html=1;exitX=0.5;exitY=1;exitDx=0;exitDy=0;fontSize=18;fontColor=#000000;" edge="1" parent="_mQOsp6kqssbeXEEPnd9-1" source="u2KMksYx86Afc_CrJR-n-0" target="_mQOsp6kqssbeXEEPnd9-4">
          <mxGeometry relative="1" as="geometry" />
        </mxCell>
        <mxCell id="YZIKGlegoNzhRB-WThwI-1" style="edgeStyle=orthogonalEdgeStyle;rounded=0;orthogonalLoop=1;jettySize=auto;html=1;exitX=0.5;exitY=1;exitDx=0;exitDy=0;fontSize=18;fontColor=#000000;" edge="1" parent="_mQOsp6kqssbeXEEPnd9-1" source="u2KMksYx86Afc_CrJR-n-0" target="YZIKGlegoNzhRB-WThwI-0">
          <mxGeometry relative="1" as="geometry" />
        </mxCell>
        <mxCell id="u2KMksYx86Afc_CrJR-n-0" value="Error" style="rounded=0;whiteSpace=wrap;html=1;fontSize=18;align=center;fillColor=#dae8fc;strokeColor=#6c8ebf;fontStyle=1" vertex="1" parent="_mQOsp6kqssbeXEEPnd9-1">
          <mxGeometry x="690" y="190" width="220" height="60" as="geometry" />
        </mxCell>
        <mxCell id="YZIKGlegoNzhRB-WThwI-0" value="DatabaseConnectionError" style="rounded=0;whiteSpace=wrap;html=1;fontSize=18;align=center;fillColor=#dae8fc;strokeColor=#6c8ebf;fontStyle=1" vertex="1" parent="_mQOsp6kqssbeXEEPnd9-1">
          <mxGeometry x="810" y="310" width="240" height="60" as="geometry" />
        </mxCell>
      </root>
    </mxGraphModel>
  </diagram>
  <diagram id="QUTJXtM51OMnNQBDUmez" name="20 - err">
    <mxGraphModel dx="834" dy="411" grid="1" gridSize="10" guides="1" tooltips="1" connect="1" arrows="1" fold="1" page="1" pageScale="1" pageWidth="1920" pageHeight="1200" math="0" shadow="0">
      <root>
        <mxCell id="2ZbvIaBJyoiQg6HypQji-0" />
        <mxCell id="2ZbvIaBJyoiQg6HypQji-1" parent="2ZbvIaBJyoiQg6HypQji-0" />
        <mxCell id="2ZbvIaBJyoiQg6HypQji-2" value="" style="rounded=0;whiteSpace=wrap;html=1;fontSize=18;fontColor=#333333;fillColor=#f5f5f5;strokeColor=#666666;" vertex="1" parent="2ZbvIaBJyoiQg6HypQji-1">
          <mxGeometry x="722.5" y="220" width="635" height="580" as="geometry" />
        </mxCell>
        <mxCell id="2ZbvIaBJyoiQg6HypQji-4" value="Request Handler" style="rounded=0;whiteSpace=wrap;html=1;fontSize=18;fontColor=#000000;" vertex="1" parent="2ZbvIaBJyoiQg6HypQji-1">
          <mxGeometry x="750" y="230" width="580" height="30" as="geometry" />
        </mxCell>
        <mxCell id="pxC4e90y2jpXmNpTSXwa-1" style="edgeStyle=orthogonalEdgeStyle;rounded=0;orthogonalLoop=1;jettySize=auto;html=1;exitX=0.5;exitY=1;exitDx=0;exitDy=0;entryX=0.5;entryY=0;entryDx=0;entryDy=0;fontSize=18;fontColor=#000000;" edge="1" parent="2ZbvIaBJyoiQg6HypQji-1" source="2ZbvIaBJyoiQg6HypQji-9" target="pxC4e90y2jpXmNpTSXwa-0">
          <mxGeometry relative="1" as="geometry" />
        </mxCell>
        <mxCell id="2ZbvIaBJyoiQg6HypQji-9" value="" style="rounded=0;whiteSpace=wrap;html=1;fontSize=18;fontColor=#000000;" vertex="1" parent="2ZbvIaBJyoiQg6HypQji-1">
          <mxGeometry x="750" y="260" width="580" height="90" as="geometry" />
        </mxCell>
        <mxCell id="2ZbvIaBJyoiQg6HypQji-6" value="RequestValidationError" style="rounded=0;whiteSpace=wrap;html=1;fontSize=18;align=center;fillColor=#f8cecc;strokeColor=#b85450;fontStyle=1" vertex="1" parent="2ZbvIaBJyoiQg6HypQji-1">
          <mxGeometry x="780" y="270" width="220" height="30" as="geometry" />
        </mxCell>
        <mxCell id="2ZbvIaBJyoiQg6HypQji-7" value="reasons = [ { msg: &#39;Bad Email&#39;, param: &#39;email&#39; } ]&amp;nbsp;" style="rounded=0;whiteSpace=wrap;html=1;fontSize=15;fillColor=#f8cecc;strokeColor=#b85450;" vertex="1" parent="2ZbvIaBJyoiQg6HypQji-1">
          <mxGeometry x="780" y="300" width="220" height="40" as="geometry" />
        </mxCell>
        <mxCell id="S78jX_B9HulSaORmskQb-1" value="DatabaseConnectionError" style="rounded=0;whiteSpace=wrap;html=1;fontSize=18;align=center;fillColor=#f8cecc;strokeColor=#b85450;fontStyle=1" vertex="1" parent="2ZbvIaBJyoiQg6HypQji-1">
          <mxGeometry x="1080" y="270" width="230" height="30" as="geometry" />
        </mxCell>
        <mxCell id="S78jX_B9HulSaORmskQb-2" value="reason = &quot;Failed to connect to database&quot;" style="rounded=0;whiteSpace=wrap;html=1;fontSize=15;fillColor=#f8cecc;strokeColor=#b85450;" vertex="1" parent="2ZbvIaBJyoiQg6HypQji-1">
          <mxGeometry x="1080" y="300" width="230" height="40" as="geometry" />
        </mxCell>
        <mxCell id="pxC4e90y2jpXmNpTSXwa-0" value="" style="rounded=0;whiteSpace=wrap;html=1;fontSize=18;fontColor=#000000;" vertex="1" parent="2ZbvIaBJyoiQg6HypQji-1">
          <mxGeometry x="750" y="420" width="580" height="370" as="geometry" />
        </mxCell>
        <mxCell id="pxC4e90y2jpXmNpTSXwa-2" value="Error" style="rounded=0;whiteSpace=wrap;html=1;fontSize=18;align=center;fillColor=#f8cecc;strokeColor=#b85450;fontStyle=1" vertex="1" parent="2ZbvIaBJyoiQg6HypQji-1">
          <mxGeometry x="1040" y="370" width="80" height="30" as="geometry" />
        </mxCell>
        <mxCell id="pxC4e90y2jpXmNpTSXwa-3" value="Error Handling Middleware" style="rounded=0;whiteSpace=wrap;html=1;fontSize=18;fontColor=#000000;" vertex="1" parent="2ZbvIaBJyoiQg6HypQji-1">
          <mxGeometry x="750" y="760" width="580" height="30" as="geometry" />
        </mxCell>
        <mxCell id="pxC4e90y2jpXmNpTSXwa-8" style="edgeStyle=orthogonalEdgeStyle;rounded=0;orthogonalLoop=1;jettySize=auto;html=1;exitX=0.5;exitY=1;exitDx=0;exitDy=0;fontSize=18;fontColor=#000000;" edge="1" parent="2ZbvIaBJyoiQg6HypQji-1" source="pxC4e90y2jpXmNpTSXwa-4" target="pxC4e90y2jpXmNpTSXwa-5">
          <mxGeometry relative="1" as="geometry">
            <Array as="points">
              <mxPoint x="1040" y="480" />
              <mxPoint x="953" y="480" />
            </Array>
          </mxGeometry>
        </mxCell>
        <mxCell id="pxC4e90y2jpXmNpTSXwa-9" style="edgeStyle=orthogonalEdgeStyle;rounded=0;orthogonalLoop=1;jettySize=auto;html=1;exitX=0.5;exitY=1;exitDx=0;exitDy=0;fontSize=18;fontColor=#000000;" edge="1" parent="2ZbvIaBJyoiQg6HypQji-1" source="pxC4e90y2jpXmNpTSXwa-4" target="pxC4e90y2jpXmNpTSXwa-6">
          <mxGeometry relative="1" as="geometry">
            <Array as="points">
              <mxPoint x="1040" y="480" />
              <mxPoint x="1133" y="480" />
            </Array>
          </mxGeometry>
        </mxCell>
        <mxCell id="pxC4e90y2jpXmNpTSXwa-4" value="Are you an instance of RequestValidationError?" style="rounded=0;whiteSpace=wrap;html=1;fontSize=18;fillColor=#dae8fc;strokeColor=#6c8ebf;" vertex="1" parent="2ZbvIaBJyoiQg6HypQji-1">
          <mxGeometry x="935" y="420" width="210" height="50" as="geometry" />
        </mxCell>
        <mxCell id="pxC4e90y2jpXmNpTSXwa-20" style="edgeStyle=orthogonalEdgeStyle;rounded=0;orthogonalLoop=1;jettySize=auto;html=1;exitX=0.5;exitY=1;exitDx=0;exitDy=0;fontSize=14;fontColor=#000000;" edge="1" parent="2ZbvIaBJyoiQg6HypQji-1" source="pxC4e90y2jpXmNpTSXwa-5" target="pxC4e90y2jpXmNpTSXwa-19">
          <mxGeometry relative="1" as="geometry" />
        </mxCell>
        <mxCell id="pxC4e90y2jpXmNpTSXwa-5" value="Yes" style="rounded=0;whiteSpace=wrap;html=1;fontSize=18;fillColor=#d5e8d4;strokeColor=#82b366;" vertex="1" parent="2ZbvIaBJyoiQg6HypQji-1">
          <mxGeometry x="850" y="500" width="65" height="30" as="geometry" />
        </mxCell>
        <mxCell id="pxC4e90y2jpXmNpTSXwa-21" style="edgeStyle=orthogonalEdgeStyle;rounded=0;orthogonalLoop=1;jettySize=auto;html=1;exitX=0.5;exitY=1;exitDx=0;exitDy=0;fontSize=14;fontColor=#000000;" edge="1" parent="2ZbvIaBJyoiQg6HypQji-1" source="pxC4e90y2jpXmNpTSXwa-6" target="pxC4e90y2jpXmNpTSXwa-7">
          <mxGeometry relative="1" as="geometry" />
        </mxCell>
        <mxCell id="pxC4e90y2jpXmNpTSXwa-6" value="No" style="rounded=0;whiteSpace=wrap;html=1;fontSize=18;fillColor=#fff2cc;strokeColor=#d6b656;" vertex="1" parent="2ZbvIaBJyoiQg6HypQji-1">
          <mxGeometry x="1100" y="500" width="65" height="30" as="geometry" />
        </mxCell>
        <mxCell id="pxC4e90y2jpXmNpTSXwa-17" style="edgeStyle=orthogonalEdgeStyle;rounded=0;orthogonalLoop=1;jettySize=auto;html=1;exitX=0.5;exitY=1;exitDx=0;exitDy=0;fontSize=16;fontColor=#000000;" edge="1" parent="2ZbvIaBJyoiQg6HypQji-1" source="pxC4e90y2jpXmNpTSXwa-7" target="pxC4e90y2jpXmNpTSXwa-15">
          <mxGeometry relative="1" as="geometry">
            <Array as="points">
              <mxPoint x="1133" y="620" />
              <mxPoint x="1043" y="620" />
            </Array>
          </mxGeometry>
        </mxCell>
        <mxCell id="pxC4e90y2jpXmNpTSXwa-18" style="edgeStyle=orthogonalEdgeStyle;rounded=0;orthogonalLoop=1;jettySize=auto;html=1;exitX=0.5;exitY=1;exitDx=0;exitDy=0;fontSize=16;fontColor=#000000;" edge="1" parent="2ZbvIaBJyoiQg6HypQji-1" source="pxC4e90y2jpXmNpTSXwa-7" target="pxC4e90y2jpXmNpTSXwa-16">
          <mxGeometry relative="1" as="geometry">
            <Array as="points">
              <mxPoint x="1133" y="620" />
              <mxPoint x="1223" y="620" />
            </Array>
          </mxGeometry>
        </mxCell>
        <mxCell id="pxC4e90y2jpXmNpTSXwa-7" value="Are you an instance of DatabaseConnectionError?" style="rounded=0;whiteSpace=wrap;html=1;fontSize=16;fillColor=#dae8fc;strokeColor=#6c8ebf;" vertex="1" parent="2ZbvIaBJyoiQg6HypQji-1">
          <mxGeometry x="1026.25" y="570" width="212.5" height="40" as="geometry" />
        </mxCell>
        <mxCell id="pxC4e90y2jpXmNpTSXwa-24" style="edgeStyle=orthogonalEdgeStyle;rounded=0;orthogonalLoop=1;jettySize=auto;html=1;exitX=0.5;exitY=1;exitDx=0;exitDy=0;entryX=0.5;entryY=0;entryDx=0;entryDy=0;fontSize=14;fontColor=#000000;" edge="1" parent="2ZbvIaBJyoiQg6HypQji-1" source="pxC4e90y2jpXmNpTSXwa-15" target="pxC4e90y2jpXmNpTSXwa-22">
          <mxGeometry relative="1" as="geometry" />
        </mxCell>
        <mxCell id="pxC4e90y2jpXmNpTSXwa-15" value="Yes" style="rounded=0;whiteSpace=wrap;html=1;fontSize=18;fillColor=#d5e8d4;strokeColor=#82b366;" vertex="1" parent="2ZbvIaBJyoiQg6HypQji-1">
          <mxGeometry x="1010" y="640" width="65" height="30" as="geometry" />
        </mxCell>
        <mxCell id="pxC4e90y2jpXmNpTSXwa-26" style="edgeStyle=orthogonalEdgeStyle;rounded=0;orthogonalLoop=1;jettySize=auto;html=1;exitX=0.5;exitY=1;exitDx=0;exitDy=0;fontSize=14;fontColor=#000000;" edge="1" parent="2ZbvIaBJyoiQg6HypQji-1" source="pxC4e90y2jpXmNpTSXwa-16" target="pxC4e90y2jpXmNpTSXwa-25">
          <mxGeometry relative="1" as="geometry" />
        </mxCell>
        <mxCell id="pxC4e90y2jpXmNpTSXwa-16" value="No" style="rounded=0;whiteSpace=wrap;html=1;fontSize=18;fillColor=#fff2cc;strokeColor=#d6b656;" vertex="1" parent="2ZbvIaBJyoiQg6HypQji-1">
          <mxGeometry x="1190" y="640" width="65" height="30" as="geometry" />
        </mxCell>
        <mxCell id="pxC4e90y2jpXmNpTSXwa-19" value="Great, I will take your &#39;reasons&#39; property and send it to the user" style="rounded=0;whiteSpace=wrap;html=1;fontSize=14;fillColor=#dae8fc;strokeColor=#6c8ebf;" vertex="1" parent="2ZbvIaBJyoiQg6HypQji-1">
          <mxGeometry x="781.25" y="550" width="202.5" height="60" as="geometry" />
        </mxCell>
        <mxCell id="pxC4e90y2jpXmNpTSXwa-22" value="Great, I will take your &#39;reason&#39; property and send it to the user" style="rounded=0;whiteSpace=wrap;html=1;fontSize=14;fillColor=#dae8fc;strokeColor=#6c8ebf;" vertex="1" parent="2ZbvIaBJyoiQg6HypQji-1">
          <mxGeometry x="966.88" y="690" width="151.25" height="60" as="geometry" />
        </mxCell>
        <mxCell id="pxC4e90y2jpXmNpTSXwa-25" value="I don&#39;t know how to handle this error, I&#39;ll send back a generic error message" style="rounded=0;whiteSpace=wrap;html=1;fontSize=14;fillColor=#dae8fc;strokeColor=#6c8ebf;" vertex="1" parent="2ZbvIaBJyoiQg6HypQji-1">
          <mxGeometry x="1135" y="690" width="175" height="60" as="geometry" />
        </mxCell>
      </root>
    </mxGraphModel>
  </diagram>
  <diagram name="22 - res" id="mxn0ltK2misrVVfBHiCx">
    <mxGraphModel dx="1036" dy="510" grid="1" gridSize="10" guides="1" tooltips="1" connect="1" arrows="1" fold="1" page="1" pageScale="1" pageWidth="1920" pageHeight="1200" math="0" shadow="0">
      <root>
        <mxCell id="b0mK-rnL_1MauwUGoj0j-0" />
        <mxCell id="b0mK-rnL_1MauwUGoj0j-1" parent="b0mK-rnL_1MauwUGoj0j-0" />
        <mxCell id="b0mK-rnL_1MauwUGoj0j-2" value="" style="rounded=0;whiteSpace=wrap;html=1;fontSize=18;fontColor=#333333;fillColor=#f5f5f5;strokeColor=#666666;" vertex="1" parent="b0mK-rnL_1MauwUGoj0j-1">
          <mxGeometry x="722.5" y="220" width="635" height="700" as="geometry" />
        </mxCell>
        <mxCell id="b0mK-rnL_1MauwUGoj0j-3" value="Request Handler" style="rounded=0;whiteSpace=wrap;html=1;fontSize=18;fontColor=#000000;" vertex="1" parent="b0mK-rnL_1MauwUGoj0j-1">
          <mxGeometry x="750" y="230" width="580" height="30" as="geometry" />
        </mxCell>
        <mxCell id="b0mK-rnL_1MauwUGoj0j-4" style="edgeStyle=orthogonalEdgeStyle;rounded=0;orthogonalLoop=1;jettySize=auto;html=1;exitX=0.5;exitY=1;exitDx=0;exitDy=0;entryX=0.5;entryY=0;entryDx=0;entryDy=0;fontSize=18;fontColor=#000000;" edge="1" parent="b0mK-rnL_1MauwUGoj0j-1" source="b0mK-rnL_1MauwUGoj0j-5" target="b0mK-rnL_1MauwUGoj0j-10">
          <mxGeometry relative="1" as="geometry" />
        </mxCell>
        <mxCell id="b0mK-rnL_1MauwUGoj0j-5" value="" style="rounded=0;whiteSpace=wrap;html=1;fontSize=18;fontColor=#000000;" vertex="1" parent="b0mK-rnL_1MauwUGoj0j-1">
          <mxGeometry x="750" y="260" width="580" height="90" as="geometry" />
        </mxCell>
        <mxCell id="b0mK-rnL_1MauwUGoj0j-6" value="RequestValidationError" style="rounded=0;whiteSpace=wrap;html=1;fontSize=18;align=center;fillColor=#f8cecc;strokeColor=#b85450;fontStyle=1" vertex="1" parent="b0mK-rnL_1MauwUGoj0j-1">
          <mxGeometry x="780" y="270" width="220" height="30" as="geometry" />
        </mxCell>
        <mxCell id="b0mK-rnL_1MauwUGoj0j-7" value="reasons = [ { msg: &#39;Bad Email&#39;, param: &#39;email&#39; } ]&amp;nbsp;" style="rounded=0;whiteSpace=wrap;html=1;fontSize=15;fillColor=#f8cecc;strokeColor=#b85450;" vertex="1" parent="b0mK-rnL_1MauwUGoj0j-1">
          <mxGeometry x="780" y="300" width="220" height="40" as="geometry" />
        </mxCell>
        <mxCell id="b0mK-rnL_1MauwUGoj0j-8" value="DatabaseConnectionError" style="rounded=0;whiteSpace=wrap;html=1;fontSize=18;align=center;fillColor=#f8cecc;strokeColor=#b85450;fontStyle=1" vertex="1" parent="b0mK-rnL_1MauwUGoj0j-1">
          <mxGeometry x="1080" y="270" width="230" height="30" as="geometry" />
        </mxCell>
        <mxCell id="b0mK-rnL_1MauwUGoj0j-9" value="reason = &quot;Failed to connect to database&quot;" style="rounded=0;whiteSpace=wrap;html=1;fontSize=15;fillColor=#f8cecc;strokeColor=#b85450;" vertex="1" parent="b0mK-rnL_1MauwUGoj0j-1">
          <mxGeometry x="1080" y="300" width="230" height="40" as="geometry" />
        </mxCell>
        <mxCell id="b0mK-rnL_1MauwUGoj0j-10" value="" style="rounded=0;whiteSpace=wrap;html=1;fontSize=18;fontColor=#000000;" vertex="1" parent="b0mK-rnL_1MauwUGoj0j-1">
          <mxGeometry x="750" y="420" width="580" height="460" as="geometry" />
        </mxCell>
        <mxCell id="b0mK-rnL_1MauwUGoj0j-11" value="Error" style="rounded=0;whiteSpace=wrap;html=1;fontSize=18;align=center;fillColor=#f8cecc;strokeColor=#b85450;fontStyle=1" vertex="1" parent="b0mK-rnL_1MauwUGoj0j-1">
          <mxGeometry x="1040" y="370" width="80" height="30" as="geometry" />
        </mxCell>
        <mxCell id="b0mK-rnL_1MauwUGoj0j-12" value="Error Handling Middleware" style="rounded=0;whiteSpace=wrap;html=1;fontSize=18;fontColor=#000000;" vertex="1" parent="b0mK-rnL_1MauwUGoj0j-1">
          <mxGeometry x="750" y="880" width="580" height="30" as="geometry" />
        </mxCell>
        <mxCell id="b0mK-rnL_1MauwUGoj0j-13" style="edgeStyle=orthogonalEdgeStyle;rounded=0;orthogonalLoop=1;jettySize=auto;html=1;exitX=0.5;exitY=1;exitDx=0;exitDy=0;fontSize=18;fontColor=#000000;" edge="1" parent="b0mK-rnL_1MauwUGoj0j-1" source="b0mK-rnL_1MauwUGoj0j-15" target="b0mK-rnL_1MauwUGoj0j-17">
          <mxGeometry relative="1" as="geometry">
            <Array as="points">
              <mxPoint x="1040" y="480" />
              <mxPoint x="953" y="480" />
            </Array>
          </mxGeometry>
        </mxCell>
        <mxCell id="b0mK-rnL_1MauwUGoj0j-14" style="edgeStyle=orthogonalEdgeStyle;rounded=0;orthogonalLoop=1;jettySize=auto;html=1;exitX=0.5;exitY=1;exitDx=0;exitDy=0;fontSize=18;fontColor=#000000;" edge="1" parent="b0mK-rnL_1MauwUGoj0j-1" source="b0mK-rnL_1MauwUGoj0j-15" target="b0mK-rnL_1MauwUGoj0j-19">
          <mxGeometry relative="1" as="geometry">
            <Array as="points">
              <mxPoint x="1040" y="480" />
              <mxPoint x="1133" y="480" />
            </Array>
          </mxGeometry>
        </mxCell>
        <mxCell id="b0mK-rnL_1MauwUGoj0j-15" value="Are you an instance of RequestValidationError?" style="rounded=0;whiteSpace=wrap;html=1;fontSize=18;fillColor=#dae8fc;strokeColor=#6c8ebf;" vertex="1" parent="b0mK-rnL_1MauwUGoj0j-1">
          <mxGeometry x="935" y="420" width="210" height="50" as="geometry" />
        </mxCell>
        <mxCell id="b0mK-rnL_1MauwUGoj0j-16" style="edgeStyle=orthogonalEdgeStyle;rounded=0;orthogonalLoop=1;jettySize=auto;html=1;exitX=0.5;exitY=1;exitDx=0;exitDy=0;fontSize=14;fontColor=#000000;" edge="1" parent="b0mK-rnL_1MauwUGoj0j-1" source="b0mK-rnL_1MauwUGoj0j-17" target="b0mK-rnL_1MauwUGoj0j-27">
          <mxGeometry relative="1" as="geometry" />
        </mxCell>
        <mxCell id="b0mK-rnL_1MauwUGoj0j-17" value="Yes" style="rounded=0;whiteSpace=wrap;html=1;fontSize=18;fillColor=#d5e8d4;strokeColor=#82b366;" vertex="1" parent="b0mK-rnL_1MauwUGoj0j-1">
          <mxGeometry x="850" y="500" width="65" height="30" as="geometry" />
        </mxCell>
        <mxCell id="b0mK-rnL_1MauwUGoj0j-18" style="edgeStyle=orthogonalEdgeStyle;rounded=0;orthogonalLoop=1;jettySize=auto;html=1;exitX=0.5;exitY=1;exitDx=0;exitDy=0;fontSize=14;fontColor=#000000;" edge="1" parent="b0mK-rnL_1MauwUGoj0j-1" source="b0mK-rnL_1MauwUGoj0j-19" target="b0mK-rnL_1MauwUGoj0j-22">
          <mxGeometry relative="1" as="geometry" />
        </mxCell>
        <mxCell id="b0mK-rnL_1MauwUGoj0j-19" value="No" style="rounded=0;whiteSpace=wrap;html=1;fontSize=18;fillColor=#fff2cc;strokeColor=#d6b656;" vertex="1" parent="b0mK-rnL_1MauwUGoj0j-1">
          <mxGeometry x="1100" y="500" width="65" height="30" as="geometry" />
        </mxCell>
        <mxCell id="b0mK-rnL_1MauwUGoj0j-20" style="edgeStyle=orthogonalEdgeStyle;rounded=0;orthogonalLoop=1;jettySize=auto;html=1;exitX=0.5;exitY=1;exitDx=0;exitDy=0;fontSize=16;fontColor=#000000;" edge="1" parent="b0mK-rnL_1MauwUGoj0j-1" source="b0mK-rnL_1MauwUGoj0j-22" target="b0mK-rnL_1MauwUGoj0j-24">
          <mxGeometry relative="1" as="geometry">
            <Array as="points">
              <mxPoint x="1133" y="620" />
              <mxPoint x="1043" y="620" />
            </Array>
          </mxGeometry>
        </mxCell>
        <mxCell id="b0mK-rnL_1MauwUGoj0j-21" style="edgeStyle=orthogonalEdgeStyle;rounded=0;orthogonalLoop=1;jettySize=auto;html=1;exitX=0.5;exitY=1;exitDx=0;exitDy=0;fontSize=16;fontColor=#000000;" edge="1" parent="b0mK-rnL_1MauwUGoj0j-1" source="b0mK-rnL_1MauwUGoj0j-22" target="b0mK-rnL_1MauwUGoj0j-26">
          <mxGeometry relative="1" as="geometry">
            <Array as="points">
              <mxPoint x="1133" y="620" />
              <mxPoint x="1223" y="620" />
            </Array>
          </mxGeometry>
        </mxCell>
        <mxCell id="b0mK-rnL_1MauwUGoj0j-22" value="Are you an instance of DatabaseConnectionError?" style="rounded=0;whiteSpace=wrap;html=1;fontSize=16;fillColor=#dae8fc;strokeColor=#6c8ebf;" vertex="1" parent="b0mK-rnL_1MauwUGoj0j-1">
          <mxGeometry x="1026.25" y="570" width="212.5" height="40" as="geometry" />
        </mxCell>
        <mxCell id="b0mK-rnL_1MauwUGoj0j-23" style="edgeStyle=orthogonalEdgeStyle;rounded=0;orthogonalLoop=1;jettySize=auto;html=1;exitX=0.5;exitY=1;exitDx=0;exitDy=0;entryX=0.5;entryY=0;entryDx=0;entryDy=0;fontSize=14;fontColor=#000000;" edge="1" parent="b0mK-rnL_1MauwUGoj0j-1" source="b0mK-rnL_1MauwUGoj0j-24" target="b0mK-rnL_1MauwUGoj0j-28">
          <mxGeometry relative="1" as="geometry" />
        </mxCell>
        <mxCell id="b0mK-rnL_1MauwUGoj0j-24" value="Yes" style="rounded=0;whiteSpace=wrap;html=1;fontSize=18;fillColor=#d5e8d4;strokeColor=#82b366;" vertex="1" parent="b0mK-rnL_1MauwUGoj0j-1">
          <mxGeometry x="1010" y="640" width="65" height="30" as="geometry" />
        </mxCell>
        <mxCell id="b0mK-rnL_1MauwUGoj0j-25" style="edgeStyle=orthogonalEdgeStyle;rounded=0;orthogonalLoop=1;jettySize=auto;html=1;exitX=0.5;exitY=1;exitDx=0;exitDy=0;fontSize=14;fontColor=#000000;" edge="1" parent="b0mK-rnL_1MauwUGoj0j-1" source="b0mK-rnL_1MauwUGoj0j-26" target="b0mK-rnL_1MauwUGoj0j-29">
          <mxGeometry relative="1" as="geometry" />
        </mxCell>
        <mxCell id="b0mK-rnL_1MauwUGoj0j-26" value="No" style="rounded=0;whiteSpace=wrap;html=1;fontSize=18;fillColor=#fff2cc;strokeColor=#d6b656;" vertex="1" parent="b0mK-rnL_1MauwUGoj0j-1">
          <mxGeometry x="1190" y="640" width="65" height="30" as="geometry" />
        </mxCell>
        <mxCell id="b0mK-rnL_1MauwUGoj0j-32" style="edgeStyle=orthogonalEdgeStyle;rounded=0;orthogonalLoop=1;jettySize=auto;html=1;exitX=0.5;exitY=1;exitDx=0;exitDy=0;entryX=0.146;entryY=-0.05;entryDx=0;entryDy=0;entryPerimeter=0;fontSize=18;fontColor=#000000;" edge="1" parent="b0mK-rnL_1MauwUGoj0j-1" source="b0mK-rnL_1MauwUGoj0j-27" target="b0mK-rnL_1MauwUGoj0j-31">
          <mxGeometry relative="1" as="geometry" />
        </mxCell>
        <mxCell id="b0mK-rnL_1MauwUGoj0j-27" value="Great, I will take your &#39;reasons&#39; property and send it to the user" style="rounded=0;whiteSpace=wrap;html=1;fontSize=14;fillColor=#dae8fc;strokeColor=#6c8ebf;" vertex="1" parent="b0mK-rnL_1MauwUGoj0j-1">
          <mxGeometry x="781.25" y="550" width="202.5" height="60" as="geometry" />
        </mxCell>
        <mxCell id="b0mK-rnL_1MauwUGoj0j-33" style="edgeStyle=orthogonalEdgeStyle;rounded=0;orthogonalLoop=1;jettySize=auto;html=1;exitX=0.5;exitY=1;exitDx=0;exitDy=0;entryX=0.5;entryY=0;entryDx=0;entryDy=0;fontSize=18;fontColor=#000000;" edge="1" parent="b0mK-rnL_1MauwUGoj0j-1" source="b0mK-rnL_1MauwUGoj0j-28" target="b0mK-rnL_1MauwUGoj0j-31">
          <mxGeometry relative="1" as="geometry" />
        </mxCell>
        <mxCell id="b0mK-rnL_1MauwUGoj0j-28" value="Great, I will take your &#39;reason&#39; property and send it to the user" style="rounded=0;whiteSpace=wrap;html=1;fontSize=14;fillColor=#dae8fc;strokeColor=#6c8ebf;" vertex="1" parent="b0mK-rnL_1MauwUGoj0j-1">
          <mxGeometry x="966.88" y="690" width="151.25" height="60" as="geometry" />
        </mxCell>
        <mxCell id="b0mK-rnL_1MauwUGoj0j-34" style="edgeStyle=orthogonalEdgeStyle;rounded=0;orthogonalLoop=1;jettySize=auto;html=1;exitX=0.5;exitY=1;exitDx=0;exitDy=0;entryX=0.75;entryY=0;entryDx=0;entryDy=0;fontSize=18;fontColor=#000000;" edge="1" parent="b0mK-rnL_1MauwUGoj0j-1" source="b0mK-rnL_1MauwUGoj0j-29" target="b0mK-rnL_1MauwUGoj0j-31">
          <mxGeometry relative="1" as="geometry" />
        </mxCell>
        <mxCell id="b0mK-rnL_1MauwUGoj0j-29" value="I don&#39;t know how to handle this error, I&#39;ll send back a generic error message" style="rounded=0;whiteSpace=wrap;html=1;fontSize=14;fillColor=#dae8fc;strokeColor=#6c8ebf;" vertex="1" parent="b0mK-rnL_1MauwUGoj0j-1">
          <mxGeometry x="1135" y="690" width="175" height="60" as="geometry" />
        </mxCell>
        <mxCell id="b0mK-rnL_1MauwUGoj0j-31" value="Common Response Structure" style="rounded=0;whiteSpace=wrap;html=1;fontSize=15;fillColor=#f8cecc;strokeColor=#b85450;" vertex="1" parent="b0mK-rnL_1MauwUGoj0j-1">
          <mxGeometry x="817.51" y="810" width="450" height="40" as="geometry" />
        </mxCell>
      </root>
    </mxGraphModel>
  </diagram>
  <diagram id="3tU4XRRBrisUKbAtWDsl" name="22 - common">
    <mxGraphModel dx="858" dy="422" grid="1" gridSize="10" guides="1" tooltips="1" connect="1" arrows="1" fold="1" page="1" pageScale="1" pageWidth="1920" pageHeight="1200" math="0" shadow="0">
      <root>
        <mxCell id="AzyrWViTkb4b-lNqs_uA-0" />
        <mxCell id="AzyrWViTkb4b-lNqs_uA-1" parent="AzyrWViTkb4b-lNqs_uA-0" />
        <mxCell id="AzyrWViTkb4b-lNqs_uA-2" value="Common Response Structure" style="rounded=0;whiteSpace=wrap;html=1;fontSize=23;align=center;fontStyle=1;fillColor=#dae8fc;strokeColor=#6c8ebf;" vertex="1" parent="AzyrWViTkb4b-lNqs_uA-1">
          <mxGeometry x="540" y="180" width="500" height="60" as="geometry" />
        </mxCell>
        <mxCell id="AzyrWViTkb4b-lNqs_uA-3" value="&amp;nbsp; { &lt;br style=&quot;font-size: 25px&quot;&gt;&amp;nbsp; &amp;nbsp; errors: { &lt;br style=&quot;font-size: 25px&quot;&gt;&amp;nbsp; &amp;nbsp; &amp;nbsp; &amp;nbsp;message: string, field?: string &lt;br style=&quot;font-size: 25px&quot;&gt;&amp;nbsp; &amp;nbsp; }[ ] &lt;br style=&quot;font-size: 25px&quot;&gt;&amp;nbsp; }" style="rounded=0;whiteSpace=wrap;html=1;fontSize=25;fontColor=#000000;align=left;" vertex="1" parent="AzyrWViTkb4b-lNqs_uA-1">
          <mxGeometry x="540" y="240" width="500" height="170" as="geometry" />
        </mxCell>
        <mxCell id="AzyrWViTkb4b-lNqs_uA-4" value="All error responses that we send out from any server should have this structure" style="text;html=1;strokeColor=none;fillColor=none;align=center;verticalAlign=middle;whiteSpace=wrap;rounded=0;fontSize=25;fontColor=#000000;fontStyle=2" vertex="1" parent="AzyrWViTkb4b-lNqs_uA-1">
          <mxGeometry x="620" y="460" width="340" height="20" as="geometry" />
        </mxCell>
      </root>
    </mxGraphModel>
  </diagram>
  <diagram id="ibspjRO1oK-xCAMkssDH" name="23 - err">
    <mxGraphModel dx="715" dy="352" grid="1" gridSize="10" guides="1" tooltips="1" connect="1" arrows="1" fold="1" page="1" pageScale="1" pageWidth="1920" pageHeight="1200" math="0" shadow="0">
      <root>
        <mxCell id="4Exdbbc70Pg_NBprH3-J-0" />
        <mxCell id="4Exdbbc70Pg_NBprH3-J-1" parent="4Exdbbc70Pg_NBprH3-J-0" />
        <mxCell id="BklqpmfwQCZEsZjqmmH2-3" style="edgeStyle=orthogonalEdgeStyle;rounded=0;orthogonalLoop=1;jettySize=auto;html=1;exitX=0;exitY=0.5;exitDx=0;exitDy=0;entryX=1;entryY=0.5;entryDx=0;entryDy=0;fontSize=25;fontColor=#000000;" edge="1" parent="4Exdbbc70Pg_NBprH3-J-1" source="BklqpmfwQCZEsZjqmmH2-0" target="BklqpmfwQCZEsZjqmmH2-2">
          <mxGeometry relative="1" as="geometry" />
        </mxCell>
        <mxCell id="BklqpmfwQCZEsZjqmmH2-0" value="RequestValidationError" style="rounded=0;whiteSpace=wrap;html=1;fontSize=18;align=center;fillColor=#f8cecc;strokeColor=#b85450;fontStyle=1" vertex="1" parent="4Exdbbc70Pg_NBprH3-J-1">
          <mxGeometry x="780" y="270" width="230" height="30" as="geometry" />
        </mxCell>
        <mxCell id="BklqpmfwQCZEsZjqmmH2-4" style="edgeStyle=orthogonalEdgeStyle;rounded=0;orthogonalLoop=1;jettySize=auto;html=1;exitX=0;exitY=0.5;exitDx=0;exitDy=0;entryX=1;entryY=0.5;entryDx=0;entryDy=0;fontSize=25;fontColor=#000000;" edge="1" parent="4Exdbbc70Pg_NBprH3-J-1" source="BklqpmfwQCZEsZjqmmH2-1" target="BklqpmfwQCZEsZjqmmH2-2">
          <mxGeometry relative="1" as="geometry" />
        </mxCell>
        <mxCell id="BklqpmfwQCZEsZjqmmH2-1" value="DatabaseConnectionError" style="rounded=0;whiteSpace=wrap;html=1;fontSize=18;align=center;fillColor=#f8cecc;strokeColor=#b85450;fontStyle=1" vertex="1" parent="4Exdbbc70Pg_NBprH3-J-1">
          <mxGeometry x="780" y="330" width="230" height="30" as="geometry" />
        </mxCell>
        <mxCell id="BklqpmfwQCZEsZjqmmH2-2" value="ErrorHandler Middleware" style="rounded=0;whiteSpace=wrap;html=1;fontSize=25;align=center;fillColor=#dae8fc;strokeColor=#6c8ebf;" vertex="1" parent="4Exdbbc70Pg_NBprH3-J-1">
          <mxGeometry x="510" y="270" width="190" height="90" as="geometry" />
        </mxCell>
        <mxCell id="BklqpmfwQCZEsZjqmmH2-5" value="" style="shape=curlyBracket;whiteSpace=wrap;html=1;rounded=1;fontSize=25;fontColor=#000000;align=center;rotation=-90;" vertex="1" parent="4Exdbbc70Pg_NBprH3-J-1">
          <mxGeometry x="595" y="285" width="20" height="190" as="geometry" />
        </mxCell>
        <mxCell id="BklqpmfwQCZEsZjqmmH2-7" value="Has intricate knowledge of how to extract information from &lt;i style=&quot;font-size: 15px;&quot;&gt;every error&lt;/i&gt;" style="text;html=1;strokeColor=none;fillColor=none;align=center;verticalAlign=middle;whiteSpace=wrap;rounded=0;fontSize=15;fontColor=#000000;" vertex="1" parent="4Exdbbc70Pg_NBprH3-J-1">
          <mxGeometry x="513.75" y="380" width="182.5" height="70" as="geometry" />
        </mxCell>
        <mxCell id="hoFXr9NuP5OAtKurtfpL-0" value="RequestValidationError" style="rounded=0;whiteSpace=wrap;html=1;fontSize=18;align=center;fillColor=#f8cecc;strokeColor=#b85450;fontStyle=1" vertex="1" parent="4Exdbbc70Pg_NBprH3-J-1">
          <mxGeometry x="780" y="390" width="230" height="30" as="geometry" />
        </mxCell>
        <mxCell id="hoFXr9NuP5OAtKurtfpL-1" value="DatabaseConnectionError" style="rounded=0;whiteSpace=wrap;html=1;fontSize=18;align=center;fillColor=#f8cecc;strokeColor=#b85450;fontStyle=1" vertex="1" parent="4Exdbbc70Pg_NBprH3-J-1">
          <mxGeometry x="780" y="450" width="230" height="30" as="geometry" />
        </mxCell>
        <mxCell id="hoFXr9NuP5OAtKurtfpL-2" value="RequestValidationError" style="rounded=0;whiteSpace=wrap;html=1;fontSize=18;align=center;fillColor=#f8cecc;strokeColor=#b85450;fontStyle=1" vertex="1" parent="4Exdbbc70Pg_NBprH3-J-1">
          <mxGeometry x="770" y="360" width="230" height="30" as="geometry" />
        </mxCell>
        <mxCell id="hoFXr9NuP5OAtKurtfpL-3" value="DatabaseConnectionError" style="rounded=0;whiteSpace=wrap;html=1;fontSize=18;align=center;fillColor=#f8cecc;strokeColor=#b85450;fontStyle=1" vertex="1" parent="4Exdbbc70Pg_NBprH3-J-1">
          <mxGeometry x="770" y="420" width="230" height="30" as="geometry" />
        </mxCell>
        <mxCell id="hoFXr9NuP5OAtKurtfpL-4" value="RequestValidationError" style="rounded=0;whiteSpace=wrap;html=1;fontSize=18;align=center;fillColor=#f8cecc;strokeColor=#b85450;fontStyle=1" vertex="1" parent="4Exdbbc70Pg_NBprH3-J-1">
          <mxGeometry x="790" y="300" width="230" height="30" as="geometry" />
        </mxCell>
        <mxCell id="hoFXr9NuP5OAtKurtfpL-5" value="DatabaseConnectionError" style="rounded=0;whiteSpace=wrap;html=1;fontSize=18;align=center;fillColor=#f8cecc;strokeColor=#b85450;fontStyle=1" vertex="1" parent="4Exdbbc70Pg_NBprH3-J-1">
          <mxGeometry x="790" y="360" width="230" height="30" as="geometry" />
        </mxCell>
        <mxCell id="hoFXr9NuP5OAtKurtfpL-6" value="RequestValidationError" style="rounded=0;whiteSpace=wrap;html=1;fontSize=18;align=center;fillColor=#f8cecc;strokeColor=#b85450;fontStyle=1" vertex="1" parent="4Exdbbc70Pg_NBprH3-J-1">
          <mxGeometry x="790" y="220" width="230" height="30" as="geometry" />
        </mxCell>
        <mxCell id="hoFXr9NuP5OAtKurtfpL-7" value="DatabaseConnectionError" style="rounded=0;whiteSpace=wrap;html=1;fontSize=18;align=center;fillColor=#f8cecc;strokeColor=#b85450;fontStyle=1" vertex="1" parent="4Exdbbc70Pg_NBprH3-J-1">
          <mxGeometry x="790" y="280" width="230" height="30" as="geometry" />
        </mxCell>
        <mxCell id="hoFXr9NuP5OAtKurtfpL-8" value="RequestValidationError" style="rounded=0;whiteSpace=wrap;html=1;fontSize=18;align=center;fillColor=#f8cecc;strokeColor=#b85450;fontStyle=1" vertex="1" parent="4Exdbbc70Pg_NBprH3-J-1">
          <mxGeometry x="800" y="195" width="230" height="30" as="geometry" />
        </mxCell>
        <mxCell id="hoFXr9NuP5OAtKurtfpL-9" value="DatabaseConnectionError" style="rounded=0;whiteSpace=wrap;html=1;fontSize=18;align=center;fillColor=#f8cecc;strokeColor=#b85450;fontStyle=1" vertex="1" parent="4Exdbbc70Pg_NBprH3-J-1">
          <mxGeometry x="800" y="255" width="230" height="30" as="geometry" />
        </mxCell>
      </root>
    </mxGraphModel>
  </diagram>
  <diagram name="24 - re" id="aXYULVYW332lFkQz72XC">
    <mxGraphModel dx="715" dy="352" grid="1" gridSize="10" guides="1" tooltips="1" connect="1" arrows="1" fold="1" page="1" pageScale="1" pageWidth="1920" pageHeight="1200" math="0" shadow="0">
      <root>
        <mxCell id="1sCERQijwXwjR1KRCAg--0" />
        <mxCell id="1sCERQijwXwjR1KRCAg--1" parent="1sCERQijwXwjR1KRCAg--0" />
        <mxCell id="1sCERQijwXwjR1KRCAg--3" value="RequestValidationError" style="rounded=0;whiteSpace=wrap;html=1;fontSize=18;align=center;fillColor=#f8cecc;strokeColor=#b85450;fontStyle=1" vertex="1" parent="1sCERQijwXwjR1KRCAg--1">
          <mxGeometry x="780" y="230" width="280" height="30" as="geometry" />
        </mxCell>
        <mxCell id="1sCERQijwXwjR1KRCAg--5" value="DatabaseConnectionError" style="rounded=0;whiteSpace=wrap;html=1;fontSize=18;align=center;fillColor=#f8cecc;strokeColor=#b85450;fontStyle=1" vertex="1" parent="1sCERQijwXwjR1KRCAg--1">
          <mxGeometry x="780" y="365" width="280" height="30" as="geometry" />
        </mxCell>
        <mxCell id="qF2_uZe4PUgOHG4MlUXz-1" style="edgeStyle=orthogonalEdgeStyle;rounded=0;orthogonalLoop=1;jettySize=auto;html=1;exitX=1;exitY=0.5;exitDx=0;exitDy=0;entryX=0;entryY=0.5;entryDx=0;entryDy=0;fontSize=15;fontColor=#000000;" edge="1" parent="1sCERQijwXwjR1KRCAg--1" source="1sCERQijwXwjR1KRCAg--6" target="1sCERQijwXwjR1KRCAg--9">
          <mxGeometry relative="1" as="geometry" />
        </mxCell>
        <mxCell id="qF2_uZe4PUgOHG4MlUXz-2" style="edgeStyle=orthogonalEdgeStyle;rounded=0;orthogonalLoop=1;jettySize=auto;html=1;exitX=1;exitY=0.5;exitDx=0;exitDy=0;entryX=0;entryY=0.5;entryDx=0;entryDy=0;fontSize=15;fontColor=#000000;" edge="1" parent="1sCERQijwXwjR1KRCAg--1" source="1sCERQijwXwjR1KRCAg--6" target="1sCERQijwXwjR1KRCAg--12">
          <mxGeometry relative="1" as="geometry" />
        </mxCell>
        <mxCell id="1sCERQijwXwjR1KRCAg--6" value="ErrorHandler Middleware" style="rounded=0;whiteSpace=wrap;html=1;fontSize=25;align=center;fillColor=#dae8fc;strokeColor=#6c8ebf;" vertex="1" parent="1sCERQijwXwjR1KRCAg--1">
          <mxGeometry x="480" y="305" width="190" height="90" as="geometry" />
        </mxCell>
        <mxCell id="1sCERQijwXwjR1KRCAg--9" value="serializeError(): CommonErrorStructure" style="rounded=0;whiteSpace=wrap;html=1;fontSize=15;align=center;fillColor=#f8cecc;strokeColor=#b85450;" vertex="1" parent="1sCERQijwXwjR1KRCAg--1">
          <mxGeometry x="780" y="260" width="280" height="30" as="geometry" />
        </mxCell>
        <mxCell id="1sCERQijwXwjR1KRCAg--11" value="serializeError(): CommonErrorStructure" style="rounded=0;whiteSpace=wrap;html=1;fontSize=15;align=center;fillColor=#f8cecc;strokeColor=#b85450;" vertex="1" parent="1sCERQijwXwjR1KRCAg--1">
          <mxGeometry x="780" y="395" width="280" height="30" as="geometry" />
        </mxCell>
        <mxCell id="1sCERQijwXwjR1KRCAg--12" value="statusCode = 400" style="rounded=0;whiteSpace=wrap;html=1;fontSize=15;align=center;fillColor=#f8cecc;strokeColor=#b85450;" vertex="1" parent="1sCERQijwXwjR1KRCAg--1">
          <mxGeometry x="780" y="290" width="280" height="30" as="geometry" />
        </mxCell>
        <mxCell id="1sCERQijwXwjR1KRCAg--13" value="statusCode = 500" style="rounded=0;whiteSpace=wrap;html=1;fontSize=15;align=center;fillColor=#f8cecc;strokeColor=#b85450;" vertex="1" parent="1sCERQijwXwjR1KRCAg--1">
          <mxGeometry x="780" y="425" width="280" height="30" as="geometry" />
        </mxCell>
        <mxCell id="qF2_uZe4PUgOHG4MlUXz-3" value="DatabaseConnectionError" style="rounded=0;whiteSpace=wrap;html=1;fontSize=18;align=center;fillColor=#f8cecc;strokeColor=#b85450;fontStyle=1" vertex="1" parent="1sCERQijwXwjR1KRCAg--1">
          <mxGeometry x="790" y="350" width="280" height="30" as="geometry" />
        </mxCell>
        <mxCell id="qF2_uZe4PUgOHG4MlUXz-4" value="serializeError(): CommonErrorStructure" style="rounded=0;whiteSpace=wrap;html=1;fontSize=15;align=center;fillColor=#f8cecc;strokeColor=#b85450;" vertex="1" parent="1sCERQijwXwjR1KRCAg--1">
          <mxGeometry x="790" y="380" width="280" height="30" as="geometry" />
        </mxCell>
        <mxCell id="qF2_uZe4PUgOHG4MlUXz-5" value="statusCode = 500" style="rounded=0;whiteSpace=wrap;html=1;fontSize=15;align=center;fillColor=#f8cecc;strokeColor=#b85450;" vertex="1" parent="1sCERQijwXwjR1KRCAg--1">
          <mxGeometry x="790" y="410" width="280" height="30" as="geometry" />
        </mxCell>
        <mxCell id="qF2_uZe4PUgOHG4MlUXz-6" value="DatabaseConnectionError" style="rounded=0;whiteSpace=wrap;html=1;fontSize=18;align=center;fillColor=#f8cecc;strokeColor=#b85450;fontStyle=1" vertex="1" parent="1sCERQijwXwjR1KRCAg--1">
          <mxGeometry x="800" y="300" width="280" height="30" as="geometry" />
        </mxCell>
        <mxCell id="qF2_uZe4PUgOHG4MlUXz-7" value="serializeError(): CommonErrorStructure" style="rounded=0;whiteSpace=wrap;html=1;fontSize=15;align=center;fillColor=#f8cecc;strokeColor=#b85450;" vertex="1" parent="1sCERQijwXwjR1KRCAg--1">
          <mxGeometry x="800" y="330" width="280" height="30" as="geometry" />
        </mxCell>
        <mxCell id="qF2_uZe4PUgOHG4MlUXz-8" value="statusCode = 500" style="rounded=0;whiteSpace=wrap;html=1;fontSize=15;align=center;fillColor=#f8cecc;strokeColor=#b85450;" vertex="1" parent="1sCERQijwXwjR1KRCAg--1">
          <mxGeometry x="800" y="360" width="280" height="30" as="geometry" />
        </mxCell>
        <mxCell id="qF2_uZe4PUgOHG4MlUXz-9" value="DatabaseConnectionError" style="rounded=0;whiteSpace=wrap;html=1;fontSize=18;align=center;fillColor=#f8cecc;strokeColor=#b85450;fontStyle=1" vertex="1" parent="1sCERQijwXwjR1KRCAg--1">
          <mxGeometry x="790" y="210" width="280" height="30" as="geometry" />
        </mxCell>
        <mxCell id="qF2_uZe4PUgOHG4MlUXz-10" value="serializeError(): CommonErrorStructure" style="rounded=0;whiteSpace=wrap;html=1;fontSize=15;align=center;fillColor=#f8cecc;strokeColor=#b85450;" vertex="1" parent="1sCERQijwXwjR1KRCAg--1">
          <mxGeometry x="790" y="240" width="280" height="30" as="geometry" />
        </mxCell>
        <mxCell id="qF2_uZe4PUgOHG4MlUXz-11" value="statusCode = 500" style="rounded=0;whiteSpace=wrap;html=1;fontSize=15;align=center;fillColor=#f8cecc;strokeColor=#b85450;" vertex="1" parent="1sCERQijwXwjR1KRCAg--1">
          <mxGeometry x="790" y="270" width="280" height="30" as="geometry" />
        </mxCell>
        <mxCell id="qF2_uZe4PUgOHG4MlUXz-12" value="DatabaseConnectionError" style="rounded=0;whiteSpace=wrap;html=1;fontSize=18;align=center;fillColor=#f8cecc;strokeColor=#b85450;fontStyle=1" vertex="1" parent="1sCERQijwXwjR1KRCAg--1">
          <mxGeometry x="790" y="425" width="280" height="30" as="geometry" />
        </mxCell>
        <mxCell id="qF2_uZe4PUgOHG4MlUXz-13" value="serializeError(): CommonErrorStructure" style="rounded=0;whiteSpace=wrap;html=1;fontSize=15;align=center;fillColor=#f8cecc;strokeColor=#b85450;" vertex="1" parent="1sCERQijwXwjR1KRCAg--1">
          <mxGeometry x="790" y="455" width="280" height="30" as="geometry" />
        </mxCell>
        <mxCell id="qF2_uZe4PUgOHG4MlUXz-14" value="statusCode = 500" style="rounded=0;whiteSpace=wrap;html=1;fontSize=15;align=center;fillColor=#f8cecc;strokeColor=#b85450;" vertex="1" parent="1sCERQijwXwjR1KRCAg--1">
          <mxGeometry x="790" y="485" width="280" height="30" as="geometry" />
        </mxCell>
        <mxCell id="qF2_uZe4PUgOHG4MlUXz-15" value="DatabaseConnectionError" style="rounded=0;whiteSpace=wrap;html=1;fontSize=18;align=center;fillColor=#f8cecc;strokeColor=#b85450;fontStyle=1" vertex="1" parent="1sCERQijwXwjR1KRCAg--1">
          <mxGeometry x="810" y="380" width="280" height="30" as="geometry" />
        </mxCell>
        <mxCell id="qF2_uZe4PUgOHG4MlUXz-16" value="serializeError(): CommonErrorStructure" style="rounded=0;whiteSpace=wrap;html=1;fontSize=15;align=center;fillColor=#f8cecc;strokeColor=#b85450;" vertex="1" parent="1sCERQijwXwjR1KRCAg--1">
          <mxGeometry x="810" y="410" width="280" height="30" as="geometry" />
        </mxCell>
        <mxCell id="qF2_uZe4PUgOHG4MlUXz-17" value="statusCode = 500" style="rounded=0;whiteSpace=wrap;html=1;fontSize=15;align=center;fillColor=#f8cecc;strokeColor=#b85450;" vertex="1" parent="1sCERQijwXwjR1KRCAg--1">
          <mxGeometry x="810" y="440" width="280" height="30" as="geometry" />
        </mxCell>
        <mxCell id="qF2_uZe4PUgOHG4MlUXz-18" value="DatabaseConnectionError" style="rounded=0;whiteSpace=wrap;html=1;fontSize=18;align=center;fillColor=#f8cecc;strokeColor=#b85450;fontStyle=1" vertex="1" parent="1sCERQijwXwjR1KRCAg--1">
          <mxGeometry x="770" y="180" width="280" height="30" as="geometry" />
        </mxCell>
        <mxCell id="qF2_uZe4PUgOHG4MlUXz-19" value="serializeError(): CommonErrorStructure" style="rounded=0;whiteSpace=wrap;html=1;fontSize=15;align=center;fillColor=#f8cecc;strokeColor=#b85450;" vertex="1" parent="1sCERQijwXwjR1KRCAg--1">
          <mxGeometry x="770" y="210" width="280" height="30" as="geometry" />
        </mxCell>
        <mxCell id="qF2_uZe4PUgOHG4MlUXz-20" value="statusCode = 500" style="rounded=0;whiteSpace=wrap;html=1;fontSize=15;align=center;fillColor=#f8cecc;strokeColor=#b85450;" vertex="1" parent="1sCERQijwXwjR1KRCAg--1">
          <mxGeometry x="770" y="240" width="280" height="30" as="geometry" />
        </mxCell>
      </root>
    </mxGraphModel>
  </diagram>
  <diagram id="0wqJwdS3mZkI4LrjP18-" name="25 - same">
    <mxGraphModel dx="1001" dy="493" grid="1" gridSize="10" guides="1" tooltips="1" connect="1" arrows="1" fold="1" page="1" pageScale="1" pageWidth="1920" pageHeight="1200" math="0" shadow="0">
      <root>
        <mxCell id="nLKXYmnI0ykGnUrP0eNY-0" />
        <mxCell id="nLKXYmnI0ykGnUrP0eNY-1" parent="nLKXYmnI0ykGnUrP0eNY-0" />
        <mxCell id="bptImGrHCrBIQFP_NVHF-0" value="" style="rounded=0;whiteSpace=wrap;html=1;fontSize=18;fontColor=#333333;fillColor=#f5f5f5;strokeColor=#666666;" vertex="1" parent="nLKXYmnI0ykGnUrP0eNY-1">
          <mxGeometry x="722.5" y="220" width="635" height="460" as="geometry" />
        </mxCell>
        <mxCell id="bptImGrHCrBIQFP_NVHF-1" value="Request Handler" style="rounded=0;whiteSpace=wrap;html=1;fontSize=18;fontColor=#000000;" vertex="1" parent="nLKXYmnI0ykGnUrP0eNY-1">
          <mxGeometry x="750" y="230" width="580" height="30" as="geometry" />
        </mxCell>
        <mxCell id="bptImGrHCrBIQFP_NVHF-2" style="edgeStyle=orthogonalEdgeStyle;rounded=0;orthogonalLoop=1;jettySize=auto;html=1;exitX=0.5;exitY=1;exitDx=0;exitDy=0;entryX=0.5;entryY=0;entryDx=0;entryDy=0;fontSize=18;fontColor=#000000;" edge="1" parent="nLKXYmnI0ykGnUrP0eNY-1" source="bptImGrHCrBIQFP_NVHF-3" target="bptImGrHCrBIQFP_NVHF-8">
          <mxGeometry relative="1" as="geometry" />
        </mxCell>
        <mxCell id="bptImGrHCrBIQFP_NVHF-3" value="" style="rounded=0;whiteSpace=wrap;html=1;fontSize=18;fontColor=#000000;" vertex="1" parent="nLKXYmnI0ykGnUrP0eNY-1">
          <mxGeometry x="750" y="260" width="580" height="90" as="geometry" />
        </mxCell>
        <mxCell id="bptImGrHCrBIQFP_NVHF-4" value="RequestValidationError" style="rounded=0;whiteSpace=wrap;html=1;fontSize=18;align=center;fillColor=#f8cecc;strokeColor=#b85450;fontStyle=1" vertex="1" parent="nLKXYmnI0ykGnUrP0eNY-1">
          <mxGeometry x="780" y="270" width="220" height="30" as="geometry" />
        </mxCell>
        <mxCell id="bptImGrHCrBIQFP_NVHF-5" value="reasons = [ { msg: &#39;Bad Email&#39;, param: &#39;email&#39; } ]&amp;nbsp;" style="rounded=0;whiteSpace=wrap;html=1;fontSize=15;fillColor=#f8cecc;strokeColor=#b85450;" vertex="1" parent="nLKXYmnI0ykGnUrP0eNY-1">
          <mxGeometry x="780" y="300" width="220" height="40" as="geometry" />
        </mxCell>
        <mxCell id="bptImGrHCrBIQFP_NVHF-6" value="DatabaseConnectionError" style="rounded=0;whiteSpace=wrap;html=1;fontSize=18;align=center;fillColor=#f8cecc;strokeColor=#b85450;fontStyle=1" vertex="1" parent="nLKXYmnI0ykGnUrP0eNY-1">
          <mxGeometry x="1080" y="270" width="230" height="30" as="geometry" />
        </mxCell>
        <mxCell id="bptImGrHCrBIQFP_NVHF-7" value="reason = &quot;Failed to connect to database&quot;" style="rounded=0;whiteSpace=wrap;html=1;fontSize=15;fillColor=#f8cecc;strokeColor=#b85450;" vertex="1" parent="nLKXYmnI0ykGnUrP0eNY-1">
          <mxGeometry x="1080" y="300" width="230" height="40" as="geometry" />
        </mxCell>
        <mxCell id="bptImGrHCrBIQFP_NVHF-8" value="" style="rounded=0;whiteSpace=wrap;html=1;fontSize=18;fontColor=#000000;" vertex="1" parent="nLKXYmnI0ykGnUrP0eNY-1">
          <mxGeometry x="750" y="420" width="580" height="220" as="geometry" />
        </mxCell>
        <mxCell id="bptImGrHCrBIQFP_NVHF-9" value="Error" style="rounded=0;whiteSpace=wrap;html=1;fontSize=18;align=center;fillColor=#f8cecc;strokeColor=#b85450;fontStyle=1" vertex="1" parent="nLKXYmnI0ykGnUrP0eNY-1">
          <mxGeometry x="1040" y="370" width="80" height="30" as="geometry" />
        </mxCell>
        <mxCell id="bptImGrHCrBIQFP_NVHF-10" value="Error Handling Middleware" style="rounded=0;whiteSpace=wrap;html=1;fontSize=18;fontColor=#000000;" vertex="1" parent="nLKXYmnI0ykGnUrP0eNY-1">
          <mxGeometry x="750" y="640" width="580" height="30" as="geometry" />
        </mxCell>
        <mxCell id="_lSEFJROzJ_0Er3J8f5f-3" style="edgeStyle=orthogonalEdgeStyle;rounded=0;orthogonalLoop=1;jettySize=auto;html=1;exitX=0.5;exitY=1;exitDx=0;exitDy=0;fontSize=15;fontColor=#000000;" edge="1" parent="nLKXYmnI0ykGnUrP0eNY-1" source="_lSEFJROzJ_0Er3J8f5f-0" target="_lSEFJROzJ_0Er3J8f5f-2">
          <mxGeometry relative="1" as="geometry" />
        </mxCell>
        <mxCell id="_lSEFJROzJ_0Er3J8f5f-0" value="Are you an instance of RequestValidationError or DatabaseConnectionError?" style="rounded=0;whiteSpace=wrap;html=1;fontSize=18;fillColor=#dae8fc;strokeColor=#6c8ebf;" vertex="1" parent="nLKXYmnI0ykGnUrP0eNY-1">
          <mxGeometry x="907.5" y="420" width="265" height="80" as="geometry" />
        </mxCell>
        <mxCell id="_lSEFJROzJ_0Er3J8f5f-2" value="Yes? OK, I sure hope you implemented serializeErrors and statusCode correctly" style="rounded=0;whiteSpace=wrap;html=1;fontSize=18;fillColor=#dae8fc;strokeColor=#6c8ebf;" vertex="1" parent="nLKXYmnI0ykGnUrP0eNY-1">
          <mxGeometry x="907.5" y="540" width="265" height="80" as="geometry" />
        </mxCell>
      </root>
    </mxGraphModel>
  </diagram>
  <diagram id="_TSet_1IVRdPxgdIYzxv" name="26 - ce">
    <mxGraphModel dx="858" dy="422" grid="1" gridSize="10" guides="1" tooltips="1" connect="1" arrows="1" fold="1" page="1" pageScale="1" pageWidth="1920" pageHeight="1200" math="0" shadow="0">
      <root>
        <mxCell id="grJwap1GP6vi78FpGkbJ-0" />
        <mxCell id="grJwap1GP6vi78FpGkbJ-1" parent="grJwap1GP6vi78FpGkbJ-0" />
        <mxCell id="gNddewZRxoIuvF5xYrzo-0" value="RequestValidationError" style="rounded=0;whiteSpace=wrap;html=1;fontSize=18;align=center;fillColor=#f8cecc;strokeColor=#b85450;fontStyle=1" vertex="1" parent="grJwap1GP6vi78FpGkbJ-1">
          <mxGeometry x="590" y="280" width="220" height="30" as="geometry" />
        </mxCell>
        <mxCell id="gNddewZRxoIuvF5xYrzo-1" value="statusCode = 400" style="rounded=0;whiteSpace=wrap;html=1;fontSize=15;fillColor=#f8cecc;strokeColor=#b85450;" vertex="1" parent="grJwap1GP6vi78FpGkbJ-1">
          <mxGeometry x="590" y="310" width="220" height="40" as="geometry" />
        </mxCell>
        <mxCell id="gNddewZRxoIuvF5xYrzo-2" value="DatabaseConnectionError" style="rounded=0;whiteSpace=wrap;html=1;fontSize=18;align=center;fillColor=#f8cecc;strokeColor=#b85450;fontStyle=1" vertex="1" parent="grJwap1GP6vi78FpGkbJ-1">
          <mxGeometry x="890" y="280" width="230" height="30" as="geometry" />
        </mxCell>
        <mxCell id="gNddewZRxoIuvF5xYrzo-3" value="statusCode = 500" style="rounded=0;whiteSpace=wrap;html=1;fontSize=15;fillColor=#f8cecc;strokeColor=#b85450;" vertex="1" parent="grJwap1GP6vi78FpGkbJ-1">
          <mxGeometry x="890" y="310" width="230" height="40" as="geometry" />
        </mxCell>
        <mxCell id="gNddewZRxoIuvF5xYrzo-4" value="serializeErrors(): {}[]" style="rounded=0;whiteSpace=wrap;html=1;fontSize=15;fillColor=#f8cecc;strokeColor=#b85450;" vertex="1" parent="grJwap1GP6vi78FpGkbJ-1">
          <mxGeometry x="590" y="350" width="220" height="40" as="geometry" />
        </mxCell>
        <mxCell id="gNddewZRxoIuvF5xYrzo-5" value="serializeErrors(): {}[]" style="rounded=0;whiteSpace=wrap;html=1;fontSize=15;fillColor=#f8cecc;strokeColor=#b85450;" vertex="1" parent="grJwap1GP6vi78FpGkbJ-1">
          <mxGeometry x="890" y="350" width="230" height="40" as="geometry" />
        </mxCell>
        <mxCell id="gNddewZRxoIuvF5xYrzo-6" value="" style="shape=curlyBracket;whiteSpace=wrap;html=1;rounded=1;fontSize=15;fontColor=#000000;align=center;rotation=90;" vertex="1" parent="grJwap1GP6vi78FpGkbJ-1">
          <mxGeometry x="845" y="-5" width="20" height="530" as="geometry" />
        </mxCell>
        <mxCell id="gNddewZRxoIuvF5xYrzo-7" value="Sure would be nice if we could get TS to double check that these things are implemented correctly!" style="rounded=0;whiteSpace=wrap;html=1;fontSize=15;align=center;fontStyle=2;fillColor=#dae8fc;strokeColor=#6c8ebf;" vertex="1" parent="grJwap1GP6vi78FpGkbJ-1">
          <mxGeometry x="721.25" y="170" width="267.5" height="80" as="geometry" />
        </mxCell>
      </root>
    </mxGraphModel>
  </diagram>
  <diagram name="27 - interfaace" id="qF5ZmKUbbJQDR4T_lrkP">
    <mxGraphModel dx="858" dy="422" grid="1" gridSize="10" guides="1" tooltips="1" connect="1" arrows="1" fold="1" page="1" pageScale="1" pageWidth="1920" pageHeight="1200" math="0" shadow="0">
      <root>
        <mxCell id="EAu7PsYnrOzjzUC8xLsk-0" />
        <mxCell id="EAu7PsYnrOzjzUC8xLsk-1" parent="EAu7PsYnrOzjzUC8xLsk-0" />
        <mxCell id="EAu7PsYnrOzjzUC8xLsk-2" value="RequestValidationError" style="rounded=0;whiteSpace=wrap;html=1;fontSize=18;align=center;fillColor=#f8cecc;strokeColor=#b85450;fontStyle=1" vertex="1" parent="EAu7PsYnrOzjzUC8xLsk-1">
          <mxGeometry x="590" y="280" width="220" height="30" as="geometry" />
        </mxCell>
        <mxCell id="EAu7PsYnrOzjzUC8xLsk-3" value="statusCode = 400" style="rounded=0;whiteSpace=wrap;html=1;fontSize=15;fillColor=#f8cecc;strokeColor=#b85450;" vertex="1" parent="EAu7PsYnrOzjzUC8xLsk-1">
          <mxGeometry x="590" y="310" width="220" height="40" as="geometry" />
        </mxCell>
        <mxCell id="EAu7PsYnrOzjzUC8xLsk-4" value="DatabaseConnectionError" style="rounded=0;whiteSpace=wrap;html=1;fontSize=18;align=center;fillColor=#f8cecc;strokeColor=#b85450;fontStyle=1" vertex="1" parent="EAu7PsYnrOzjzUC8xLsk-1">
          <mxGeometry x="900" y="280" width="230" height="30" as="geometry" />
        </mxCell>
        <mxCell id="EAu7PsYnrOzjzUC8xLsk-5" value="statusCode = 500" style="rounded=0;whiteSpace=wrap;html=1;fontSize=15;fillColor=#f8cecc;strokeColor=#b85450;" vertex="1" parent="EAu7PsYnrOzjzUC8xLsk-1">
          <mxGeometry x="900" y="310" width="230" height="40" as="geometry" />
        </mxCell>
        <mxCell id="EAu7PsYnrOzjzUC8xLsk-6" value="serializeErrors(): {}[]" style="rounded=0;whiteSpace=wrap;html=1;fontSize=15;fillColor=#f8cecc;strokeColor=#b85450;" vertex="1" parent="EAu7PsYnrOzjzUC8xLsk-1">
          <mxGeometry x="590" y="350" width="220" height="40" as="geometry" />
        </mxCell>
        <mxCell id="EAu7PsYnrOzjzUC8xLsk-7" value="serializeErrors(): {}[]" style="rounded=0;whiteSpace=wrap;html=1;fontSize=15;fillColor=#f8cecc;strokeColor=#b85450;" vertex="1" parent="EAu7PsYnrOzjzUC8xLsk-1">
          <mxGeometry x="900" y="350" width="230" height="40" as="geometry" />
        </mxCell>
        <mxCell id="EAu7PsYnrOzjzUC8xLsk-10" value="CustomError Interface" style="rounded=0;whiteSpace=wrap;html=1;fontSize=18;align=center;fillColor=#dae8fc;strokeColor=#6c8ebf;fontStyle=1" vertex="1" parent="EAu7PsYnrOzjzUC8xLsk-1">
          <mxGeometry x="746" y="110" width="230" height="30" as="geometry" />
        </mxCell>
        <mxCell id="EAu7PsYnrOzjzUC8xLsk-12" value="statusCode: number" style="rounded=0;whiteSpace=wrap;html=1;fontSize=15;fillColor=#dae8fc;strokeColor=#6c8ebf;" vertex="1" parent="EAu7PsYnrOzjzUC8xLsk-1">
          <mxGeometry x="746" y="140" width="230" height="40" as="geometry" />
        </mxCell>
        <mxCell id="EAu7PsYnrOzjzUC8xLsk-14" style="edgeStyle=orthogonalEdgeStyle;rounded=0;orthogonalLoop=1;jettySize=auto;html=1;exitX=0.5;exitY=1;exitDx=0;exitDy=0;fontSize=15;fontColor=#000000;" edge="1" parent="EAu7PsYnrOzjzUC8xLsk-1" source="EAu7PsYnrOzjzUC8xLsk-13" target="EAu7PsYnrOzjzUC8xLsk-2">
          <mxGeometry relative="1" as="geometry" />
        </mxCell>
        <mxCell id="EAu7PsYnrOzjzUC8xLsk-15" style="edgeStyle=orthogonalEdgeStyle;rounded=0;orthogonalLoop=1;jettySize=auto;html=1;exitX=0.5;exitY=1;exitDx=0;exitDy=0;fontSize=15;fontColor=#000000;" edge="1" parent="EAu7PsYnrOzjzUC8xLsk-1" source="EAu7PsYnrOzjzUC8xLsk-13" target="EAu7PsYnrOzjzUC8xLsk-4">
          <mxGeometry relative="1" as="geometry" />
        </mxCell>
        <mxCell id="EAu7PsYnrOzjzUC8xLsk-13" value="serializeErrors(): {}[]" style="rounded=0;whiteSpace=wrap;html=1;fontSize=15;fillColor=#dae8fc;strokeColor=#6c8ebf;" vertex="1" parent="EAu7PsYnrOzjzUC8xLsk-1">
          <mxGeometry x="746" y="180" width="230" height="40" as="geometry" />
        </mxCell>
        <mxCell id="EAu7PsYnrOzjzUC8xLsk-16" value="Option #1" style="text;html=1;strokeColor=none;fillColor=none;align=center;verticalAlign=middle;whiteSpace=wrap;rounded=0;fontSize=15;fontColor=#000000;fontStyle=3" vertex="1" parent="EAu7PsYnrOzjzUC8xLsk-1">
          <mxGeometry x="580" y="140" width="100" height="40" as="geometry" />
        </mxCell>
      </root>
    </mxGraphModel>
  </diagram>
  <diagram id="aIiiWDSDb-HqXdcKoKcB" name="28 - abstract class">
    <mxGraphModel dx="812" dy="399" grid="1" gridSize="10" guides="1" tooltips="1" connect="1" arrows="1" fold="1" page="1" pageScale="1" pageWidth="1920" pageHeight="1200" math="0" shadow="0">
      <root>
        <mxCell id="sVq2k-VrKA1hLCBRV9o6-0" />
        <mxCell id="sVq2k-VrKA1hLCBRV9o6-1" parent="sVq2k-VrKA1hLCBRV9o6-0" />
        <mxCell id="AOK_9p7eVqWGrMy1gV0i-0" value="RequestValidationError" style="rounded=0;whiteSpace=wrap;html=1;fontSize=18;align=center;fillColor=#f8cecc;strokeColor=#b85450;fontStyle=1" vertex="1" parent="sVq2k-VrKA1hLCBRV9o6-1">
          <mxGeometry x="480" y="450" width="220" height="30" as="geometry" />
        </mxCell>
        <mxCell id="AOK_9p7eVqWGrMy1gV0i-1" value="statusCode = 400" style="rounded=0;whiteSpace=wrap;html=1;fontSize=15;fillColor=#f8cecc;strokeColor=#b85450;" vertex="1" parent="sVq2k-VrKA1hLCBRV9o6-1">
          <mxGeometry x="480" y="480" width="220" height="40" as="geometry" />
        </mxCell>
        <mxCell id="AOK_9p7eVqWGrMy1gV0i-2" value="DatabaseConnectionError" style="rounded=0;whiteSpace=wrap;html=1;fontSize=18;align=center;fillColor=#f8cecc;strokeColor=#b85450;fontStyle=1" vertex="1" parent="sVq2k-VrKA1hLCBRV9o6-1">
          <mxGeometry x="790" y="450" width="230" height="30" as="geometry" />
        </mxCell>
        <mxCell id="AOK_9p7eVqWGrMy1gV0i-3" value="statusCode = 500" style="rounded=0;whiteSpace=wrap;html=1;fontSize=15;fillColor=#f8cecc;strokeColor=#b85450;" vertex="1" parent="sVq2k-VrKA1hLCBRV9o6-1">
          <mxGeometry x="790" y="480" width="230" height="40" as="geometry" />
        </mxCell>
        <mxCell id="AOK_9p7eVqWGrMy1gV0i-4" value="serializeErrors(): {}[]" style="rounded=0;whiteSpace=wrap;html=1;fontSize=15;fillColor=#f8cecc;strokeColor=#b85450;" vertex="1" parent="sVq2k-VrKA1hLCBRV9o6-1">
          <mxGeometry x="480" y="520" width="220" height="40" as="geometry" />
        </mxCell>
        <mxCell id="AOK_9p7eVqWGrMy1gV0i-5" value="serializeErrors(): {}[]" style="rounded=0;whiteSpace=wrap;html=1;fontSize=15;fillColor=#f8cecc;strokeColor=#b85450;" vertex="1" parent="sVq2k-VrKA1hLCBRV9o6-1">
          <mxGeometry x="790" y="520" width="230" height="40" as="geometry" />
        </mxCell>
        <mxCell id="AOK_9p7eVqWGrMy1gV0i-6" value="CustomError Abstract Class" style="rounded=0;whiteSpace=wrap;html=1;fontSize=18;align=center;fillColor=#dae8fc;strokeColor=#6c8ebf;fontStyle=1" vertex="1" parent="sVq2k-VrKA1hLCBRV9o6-1">
          <mxGeometry x="610" y="280" width="284" height="30" as="geometry" />
        </mxCell>
        <mxCell id="AOK_9p7eVqWGrMy1gV0i-7" value="statusCode: number" style="rounded=0;whiteSpace=wrap;html=1;fontSize=15;fillColor=#dae8fc;strokeColor=#6c8ebf;" vertex="1" parent="sVq2k-VrKA1hLCBRV9o6-1">
          <mxGeometry x="610" y="310" width="284" height="40" as="geometry" />
        </mxCell>
        <mxCell id="AOK_9p7eVqWGrMy1gV0i-8" style="edgeStyle=orthogonalEdgeStyle;rounded=0;orthogonalLoop=1;jettySize=auto;html=1;exitX=0.5;exitY=1;exitDx=0;exitDy=0;fontSize=15;fontColor=#000000;" edge="1" parent="sVq2k-VrKA1hLCBRV9o6-1" source="AOK_9p7eVqWGrMy1gV0i-10" target="AOK_9p7eVqWGrMy1gV0i-0">
          <mxGeometry relative="1" as="geometry" />
        </mxCell>
        <mxCell id="AOK_9p7eVqWGrMy1gV0i-9" style="edgeStyle=orthogonalEdgeStyle;rounded=0;orthogonalLoop=1;jettySize=auto;html=1;exitX=0.5;exitY=1;exitDx=0;exitDy=0;fontSize=15;fontColor=#000000;" edge="1" parent="sVq2k-VrKA1hLCBRV9o6-1" source="AOK_9p7eVqWGrMy1gV0i-10" target="AOK_9p7eVqWGrMy1gV0i-2">
          <mxGeometry relative="1" as="geometry" />
        </mxCell>
        <mxCell id="AOK_9p7eVqWGrMy1gV0i-10" value="serializeErrors(): {}[]" style="rounded=0;whiteSpace=wrap;html=1;fontSize=15;fillColor=#dae8fc;strokeColor=#6c8ebf;" vertex="1" parent="sVq2k-VrKA1hLCBRV9o6-1">
          <mxGeometry x="610" y="350" width="284" height="40" as="geometry" />
        </mxCell>
        <mxCell id="AOK_9p7eVqWGrMy1gV0i-11" value="Option #2" style="text;html=1;strokeColor=none;fillColor=none;align=center;verticalAlign=middle;whiteSpace=wrap;rounded=0;fontSize=15;fontColor=#000000;fontStyle=3" vertex="1" parent="sVq2k-VrKA1hLCBRV9o6-1">
          <mxGeometry x="470" y="310" width="100" height="40" as="geometry" />
        </mxCell>
        <mxCell id="AOK_9p7eVqWGrMy1gV0i-13" style="edgeStyle=orthogonalEdgeStyle;rounded=0;orthogonalLoop=1;jettySize=auto;html=1;exitX=0.5;exitY=1;exitDx=0;exitDy=0;entryX=0.5;entryY=0;entryDx=0;entryDy=0;fontSize=15;fontColor=#000000;" edge="1" parent="sVq2k-VrKA1hLCBRV9o6-1" source="AOK_9p7eVqWGrMy1gV0i-12" target="AOK_9p7eVqWGrMy1gV0i-6">
          <mxGeometry relative="1" as="geometry" />
        </mxCell>
        <mxCell id="AOK_9p7eVqWGrMy1gV0i-12" value="Error" style="rounded=0;whiteSpace=wrap;html=1;fontSize=18;align=center;fillColor=#dae8fc;strokeColor=#6c8ebf;fontStyle=1" vertex="1" parent="sVq2k-VrKA1hLCBRV9o6-1">
          <mxGeometry x="610" y="220" width="284" height="30" as="geometry" />
        </mxCell>
        <mxCell id="AOK_9p7eVqWGrMy1gV0i-14" value="Reminder on abstract classes" style="text;html=1;strokeColor=none;fillColor=none;align=center;verticalAlign=middle;whiteSpace=wrap;rounded=0;fontSize=15;fontColor=#000000;fontStyle=3" vertex="1" parent="sVq2k-VrKA1hLCBRV9o6-1">
          <mxGeometry x="940" y="255" width="230" height="40" as="geometry" />
        </mxCell>
        <mxCell id="AOK_9p7eVqWGrMy1gV0i-15" value="- Cannot be instantiated" style="text;html=1;strokeColor=none;fillColor=none;align=left;verticalAlign=middle;whiteSpace=wrap;rounded=0;fontSize=15;fontColor=#000000;fontStyle=3" vertex="1" parent="sVq2k-VrKA1hLCBRV9o6-1">
          <mxGeometry x="960" y="280" width="230" height="40" as="geometry" />
        </mxCell>
        <mxCell id="AOK_9p7eVqWGrMy1gV0i-16" value="- Used to set up requirements for subclasses" style="text;html=1;strokeColor=none;fillColor=none;align=left;verticalAlign=middle;whiteSpace=wrap;rounded=0;fontSize=15;fontColor=#000000;fontStyle=3" vertex="1" parent="sVq2k-VrKA1hLCBRV9o6-1">
          <mxGeometry x="960" y="310" width="230" height="40" as="geometry" />
        </mxCell>
        <mxCell id="AOK_9p7eVqWGrMy1gV0i-17" value="- Do create a Class when translated to JS, which means we can use it in &#39;instanceof&#39; checks!!!!" style="text;html=1;strokeColor=none;fillColor=none;align=left;verticalAlign=middle;whiteSpace=wrap;rounded=0;fontSize=15;fontColor=#000000;fontStyle=3" vertex="1" parent="sVq2k-VrKA1hLCBRV9o6-1">
          <mxGeometry x="960" y="370" width="230" height="40" as="geometry" />
        </mxCell>
      </root>
    </mxGraphModel>
  </diagram>
</mxfile>
